<svg width="36" height="50" viewBox="0 0 36 50" fill="none" xmlns="http://www.w3.org/2000/svg">
<path d="M10.3839 2.34569C7.58329 3.63575 4.90356 4.94538 4.39988 5.27771C3.25146 6.04002 2.22389 7.27145 1.53888 8.71793L0.974716 9.87119L0.873969 17.3966C0.773222 24.2771 0.732957 24.9808 0.390394 25.5867C-0.133444 26.5249 -0.133444 28.3623 0.410555 29.5156C0.914233 30.6297 2.40522 31.9589 3.47306 32.2717L4.29914 32.5062V35.4773C4.29914 37.7642 4.37972 38.7806 4.68196 39.9144C5.44762 42.8269 7.24079 45.5047 9.5578 47.2053C16.5089 52.307 26.2808 50.1959 30.2096 42.7291C31.358 40.5595 31.7006 38.898 31.7006 35.4773V32.5062L32.5267 32.2717C33.5945 31.9589 35.0855 30.6298 35.5892 29.5156C36.1533 28.3232 36.1332 26.5445 35.5489 25.4498C35.1459 24.668 35.1258 24.4139 35.1258 16.8102C35.1258 9.48018 35.1056 8.93292 34.7429 8.24874C34.0579 6.95868 32.4662 5.86404 31.2976 5.86404C30.9148 5.86404 30.8946 5.74674 30.8946 3.42072C30.8946 1.2315 30.8543 0.938276 30.4916 0.586436C29.8671 -0.0195044 29.2827 0.117298 27.9127 1.17282C26.7441 2.11104 26.6635 2.1306 26.6635 1.70058C26.6635 1.03602 25.918 0.195481 25.3538 0.195481C25.1121 0.195481 24.3263 0.625499 23.6211 1.17282L22.3316 2.1306L22.2712 1.5051C22.1906 0.703678 21.707 0.195481 21.0422 0.195481C20.7399 0.195481 19.8131 0.664615 18.846 1.27056L17.1938 2.34564V1.70058C17.1938 0.8796 16.5289 0 15.9245 0C15.6827 0.019559 13.1843 1.07508 10.3838 2.34558L10.3839 2.34569ZM15.8239 4.02666C16.388 4.59354 17.1335 4.39806 18.9065 3.2448L20.6191 2.15016V2.91246C20.6191 3.49884 20.74 3.7725 21.0624 3.98754C21.7877 4.49574 22.2713 4.35894 23.601 3.32298L24.8502 2.32608V2.93202C24.8502 3.6357 25.4748 4.30026 26.1195 4.30026C26.3815 4.30026 27.1269 3.90931 27.7515 3.42066C28.3963 2.93202 28.9604 2.54106 29.0007 2.54106C29.041 2.54106 29.0813 3.28386 29.0813 4.18297V5.84442L28.4567 5.90304C27.671 5.98123 27.268 6.48943 27.5904 6.97813C27.7717 7.25178 28.215 7.34952 29.7664 7.44726C31.9424 7.56456 32.5468 7.83822 33.1513 9.01098C33.4736 9.59736 33.5139 10.3792 33.5139 16.3801V23.0846L33.0707 22.9478C31.761 22.5568 31.7006 22.5178 31.7006 21.7555C31.6804 20.2308 30.2903 17.7679 29.0008 17.0252C28.4164 16.6929 28.2553 16.6733 26.6636 16.9274C24.3869 17.2597 21.7676 17.2597 20.4177 16.9274C19.8133 16.7711 18.2618 16.1456 16.9724 15.5592C14.3531 14.3473 11.2906 13.2918 10.404 13.2918C8.36905 13.2918 6.47513 14.6014 5.50804 16.6929C4.88346 18.0221 4.29914 20.4458 4.29914 21.6968C4.29914 22.5178 4.25882 22.5569 2.92906 22.9674L2.46565 23.1042L2.5865 10.4575L3.1305 9.32382C4.11775 7.29096 5.02441 6.6459 10.4442 4.18302L15.2798 1.97424L15.3806 2.85384C15.441 3.32297 15.6425 3.85074 15.8239 4.02666ZM12.5599 15.5592C13.3456 15.8329 15.0582 16.5365 16.3477 17.1229C19.6721 18.6476 20.4982 18.843 23.2384 18.8235C24.5077 18.8235 26.1397 18.7258 26.865 18.589C28.1747 18.3739 28.1747 18.3739 28.638 18.9017C29.6857 20.1136 29.9678 21.0323 30.0887 23.847L30.1895 26.4858H31.5998L31.6602 25.4498C31.7005 24.8243 31.8214 24.4334 31.9625 24.4334C32.5468 24.4334 33.5541 25.2739 33.9168 26.0558C34.6018 27.5023 34.3802 28.7337 33.2519 29.8675C32.4862 30.6298 31.6401 30.8839 29.7058 30.8839C28.2552 30.8839 28.2148 30.9034 27.4492 31.6462C26.6836 32.3694 26.6635 32.4476 26.6635 33.6986C26.6635 34.4218 26.5627 35.1841 26.462 35.3992C26.1195 35.9855 25.374 35.8683 24.7696 35.1059C24.4875 34.7345 23.7823 34.2068 23.198 33.9331C22.1704 33.4445 22.0697 33.4249 17.9998 33.4249C13.9298 33.4249 13.8291 33.4445 12.8015 33.9331C12.2172 34.2068 11.512 34.7345 11.2299 35.1059C10.6255 35.8682 9.88003 35.9855 9.53752 35.3992C9.43678 35.1841 9.33603 34.4218 9.33603 33.6986C9.33603 32.4476 9.31587 32.3694 8.55027 31.6462C7.78462 30.9034 7.74435 30.8839 6.29369 30.8839C4.35945 30.8839 3.51326 30.6298 2.74761 29.8675C1.61929 28.7337 1.39769 27.5023 2.0827 26.0558C2.44537 25.274 3.45278 24.4334 4.03705 24.4334C4.17806 24.4334 4.29897 24.8244 4.33929 25.4498L4.39971 26.4858H5.81006L5.93096 23.6515C6.07198 20.485 6.33395 18.9408 7.03912 17.4943C7.62345 16.2824 7.8652 15.9892 8.73155 15.4615C9.67853 14.9141 10.8068 14.9337 12.5597 15.5592H12.5599ZM7.28105 32.7603C7.66388 33.0144 7.72431 33.2294 7.72431 34.4999C7.72431 35.8487 7.76463 36.005 8.34889 36.6305C9.47721 37.9011 10.9077 37.8229 12.3181 36.4155C13.6881 35.0863 14.0508 34.9886 17.9998 34.9886C21.9488 34.9886 22.3115 35.0863 23.6816 36.4155C24.1651 36.9041 24.83 37.3733 25.1121 37.4319C25.9784 37.6469 26.9456 37.3733 27.5903 36.7282C28.1141 36.2005 28.1947 35.9659 28.2753 34.539C28.3761 33.073 28.4163 32.9166 28.8999 32.6625C29.182 32.5061 29.5849 32.4475 29.7864 32.5257C30.1088 32.643 30.1289 32.8971 30.0282 35.7314C29.9073 39.1325 29.6857 40.1294 28.5372 42.26C27.2678 44.6447 24.6688 46.7753 21.9689 47.6939C21.0824 48.0067 20.0548 48.1631 18.4631 48.2217C16.4281 48.3194 16.0252 48.2803 14.5141 47.8307C10.6054 46.6384 7.6436 43.726 6.41454 39.8752C6.07203 38.7806 5.72953 33.3662 5.97129 32.7602C6.13246 32.3693 6.69673 32.3693 7.28105 32.7603Z" fill="#1B9CB4"/>
<path d="M8.77204 21.9314C8.63103 22.0682 8.53028 22.3224 8.53028 22.4983C8.53028 23.1824 8.99369 23.2802 12.1771 23.2215C15.2396 23.1629 15.2799 23.1629 15.3403 22.7133C15.4814 21.7946 15.159 21.6969 11.9756 21.6969C9.94062 21.6969 8.93327 21.7751 8.77204 21.9314Z" fill="#1B9CB4"/>
<path d="M20.8408 21.9705C20.6998 22.1269 20.6191 22.4591 20.6594 22.7133C20.7199 23.1629 20.74 23.1629 23.9234 23.1629C26.7442 23.1629 27.1471 23.1237 27.3486 22.811C27.5098 22.5765 27.5098 22.381 27.3486 22.1269C27.1471 21.8337 26.724 21.7946 24.1048 21.736C21.6467 21.6968 21.0423 21.736 20.8408 21.9705Z" fill="#1B9CB4"/>
<path d="M9.65854 25.3325C9.4772 25.4889 9.33619 25.7235 9.33619 25.8212C9.33619 26.1339 10.1421 26.779 10.5451 26.779C10.7668 26.779 11.1294 26.9549 11.351 27.1699C11.5727 27.385 11.895 27.5609 12.0562 27.5609C12.2174 27.5609 12.4592 27.385 12.6002 27.1699C12.7412 26.9549 13.0434 26.779 13.2651 26.779C14.2322 26.779 14.9173 25.8212 14.3329 25.2543C13.9501 24.8829 10.0615 24.9416 9.65854 25.3325Z" fill="#1B9CB4"/>
<path d="M21.6668 25.2544C21.0825 25.8212 21.7676 26.779 22.7347 26.779C22.9563 26.779 23.2585 26.9549 23.3996 27.17C23.5406 27.385 23.7824 27.5609 23.9436 27.5609C24.1048 27.5609 24.4272 27.385 24.6488 27.17C24.8704 26.9549 25.2331 26.779 25.4547 26.779C25.8577 26.779 26.6636 26.134 26.6636 25.8212C26.6636 25.7235 26.5226 25.489 26.3412 25.3326C25.9383 24.9416 22.0496 24.883 21.6668 25.2544Z" fill="#1B9CB4"/>
<path d="M16.4283 30.4342C16.2269 30.8252 16.3276 31.2943 16.6701 31.5093C16.791 31.5875 17.3954 31.6656 17.9999 31.6656C18.6043 31.6656 19.2088 31.5875 19.3296 31.5093C19.6721 31.2943 19.7729 30.8252 19.5714 30.4342C19.4304 30.1606 19.1281 30.1019 17.9998 30.1019C16.8715 30.1019 16.5694 30.1606 16.4283 30.4342Z" fill="#1B9CB4"/>
<path d="M14.8165 36.9824C14.6955 37.0997 14.5747 37.3733 14.5747 37.5493C14.5747 38.2334 15.0381 38.3311 18.1006 38.2725C20.6796 38.2139 21.1027 38.1748 21.3042 37.862C21.4654 37.6275 21.4654 37.432 21.3042 37.1779C21.1027 36.8847 20.6796 36.8456 18.0805 36.787C15.9045 36.7478 14.9978 36.8065 14.8165 36.9824Z" fill="#1B9CB4"/>
<path d="M16.4082 40.5008C16.0657 41.3608 16.4686 41.6345 17.9999 41.6345C19.5311 41.6345 19.9341 41.3608 19.5915 40.5008C19.4304 40.1098 19.2893 40.0708 17.9999 40.0708C16.7104 40.0708 16.5694 40.1099 16.4082 40.5008Z" fill="#1B9CB4"/>
</svg>
