<svg width="29" height="49" viewBox="0 0 29 49" fill="none" xmlns="http://www.w3.org/2000/svg">
<path fill-rule="evenodd" clip-rule="evenodd" d="M24.6716 0.00844675C23.9428 -0.0418135 23.2392 0.134104 22.6109 0.485926C15.2227 7.87419 7.85953 15.2373 0.471266 22.6256C-0.156988 23.6308 -0.156988 24.636 0.471266 25.6412C7.85953 33.0295 15.2227 40.3926 22.6109 47.7809C23.6161 48.4091 24.6213 48.4091 25.6265 47.7809C26.3553 47.0521 27.0841 46.3233 27.7877 45.6197C28.3155 44.715 28.3657 43.7601 27.9888 42.8051C21.9073 36.5477 15.7755 30.3405 9.61863 24.1334C15.7755 17.9514 21.9073 11.7191 27.9888 5.48683C28.3909 4.50676 28.3155 3.57693 27.7877 2.64711C26.8579 1.59165 25.8276 0.712091 24.6716 0.00844675Z" fill="#1B9CB4"/>
</svg>
