<svg width="29" height="49" viewBox="0 0 29 49" fill="none" xmlns="http://www.w3.org/2000/svg">
<path fill-rule="evenodd" clip-rule="evenodd" d="M3.57303 0.00844675C4.30181 -0.0418135 5.00545 0.134104 5.63371 0.485926C13.022 7.87419 20.3851 15.2373 27.7734 22.6256C28.4016 23.6308 28.4016 24.636 27.7734 25.6412C20.3851 33.0295 13.022 40.3926 5.63371 47.7809C4.6285 48.4091 3.6233 48.4091 2.61809 47.7809C1.88932 47.0521 1.16055 46.3233 0.456903 45.6197C-0.0708299 44.715 -0.121102 43.7601 0.25585 42.8051C6.33735 36.5477 12.4691 30.3405 18.626 24.1334C12.4691 17.9514 6.33735 11.7191 0.25585 5.48683C-0.146233 4.50676 -0.0708299 3.57693 0.456903 2.64711C1.38672 1.59165 2.41705 0.712091 3.57303 0.00844675Z" fill="#1B9CB4"/>
</svg>
