<svg width="38" height="43" viewBox="0 0 38 43" fill="none" xmlns="http://www.w3.org/2000/svg">
<path d="M9.27996 14.4482C9.13143 14.6009 9.02531 14.8846 9.02531 15.081C9.02531 15.8447 9.51344 15.9538 12.8666 15.8883C16.0925 15.8229 16.135 15.8229 16.1986 15.321C16.3471 14.2954 16.0076 14.1864 12.6544 14.1864C10.5109 14.1864 9.44979 14.2736 9.27996 14.4482Z" fill="#1B9CB4"/>
<path d="M21.9924 14.4918C21.8439 14.6663 21.7589 15.0372 21.8014 15.321C21.865 15.8228 21.8863 15.8228 25.2395 15.8228C28.2107 15.8228 28.6351 15.7792 28.8473 15.4301C29.0171 15.1682 29.0171 14.95 28.8473 14.6664C28.6351 14.339 28.1894 14.2954 25.4305 14.2299C22.8413 14.1863 22.2046 14.2299 21.9924 14.4918Z" fill="#1B9CB4"/>
<path d="M10.2138 18.2449C10.0228 18.4194 9.87422 18.6813 9.87422 18.7904C9.87422 19.1395 10.7231 19.8596 11.1476 19.8596C11.3811 19.8596 11.7631 20.0559 11.9965 20.296C12.23 20.536 12.5695 20.7324 12.7393 20.7324C12.9091 20.7324 13.1638 20.536 13.3123 20.296C13.4608 20.0559 13.7792 19.8596 14.0127 19.8596C15.0313 19.8596 15.7529 18.7904 15.1375 18.1575C14.7342 17.7429 10.6382 17.8085 10.2138 18.2449Z" fill="#1B9CB4"/>
<path d="M22.8625 18.1576C22.247 18.7904 22.9687 19.8596 23.9873 19.8596C24.2208 19.8596 24.5391 20.056 24.6877 20.2961C24.8362 20.5361 25.0909 20.7325 25.2607 20.7325C25.4305 20.7325 25.7701 20.5361 26.0035 20.2961C26.237 20.056 26.619 19.8596 26.8524 19.8596C27.2769 19.8596 28.1258 19.1395 28.1258 18.7904C28.1258 18.6813 27.9772 18.4195 27.7862 18.245C27.3618 17.8085 23.2657 17.743 22.8625 18.1576Z" fill="#1B9CB4"/>
<path d="M17.3446 23.94C17.1324 24.3764 17.2385 24.9001 17.5993 25.1401C17.7266 25.2274 18.3633 25.3147 19 25.3147C19.6366 25.3147 20.2733 25.2274 20.4006 25.1401C20.7614 24.9001 20.8675 24.3764 20.6553 23.94C20.5068 23.6345 20.1884 23.5691 18.9999 23.5691C17.8114 23.5691 17.4932 23.6345 17.3446 23.94Z" fill="#1B9CB4"/>
<path d="M15.6468 31.2499C15.5194 31.3808 15.3921 31.6863 15.3921 31.8827C15.3921 32.6464 15.8802 32.7555 19.1061 32.6901C21.8226 32.6246 22.2683 32.581 22.4805 32.2319C22.6503 31.97 22.6503 31.7518 22.4805 31.4682C22.2683 31.1408 21.8226 31.0972 19.0849 31.0317C16.7929 30.9881 15.8378 31.0535 15.6468 31.2499Z" fill="#1B9CB4"/>
<path d="M17.3234 35.1775C16.9626 36.1376 17.387 36.4431 19 36.4431C20.6129 36.4431 21.0374 36.1376 20.6765 35.1775C20.5068 34.7411 20.3582 34.6975 19 34.6975C17.6417 34.6975 17.4932 34.7412 17.3234 35.1775Z" fill="#1B9CB4"/>
<path d="M33.6428 26.2066L34.3585 25.9912C35.4833 25.6421 37.0538 24.1583 37.5843 22.9145C38.9893 19.7676 36.7268 14.1373 32.3975 15.426L32.789 16.8473C34.8229 17.272 36.3323 18.8377 36.3323 20.7051C36.3323 22.5513 34.857 24.1031 32.858 24.5484C32.809 24.5984 32.7584 24.6477 32.7045 24.6955L33.6428 26.2066Z" fill="#1B9CB4"/>
<path d="M0.529425 22.9145C1.05997 24.1582 2.63047 25.642 3.75527 25.9912L4.6254 26.253V26.289L5.73251 24.6432C3.45068 24.3886 1.68868 22.7226 1.68868 20.7051C1.68868 18.7161 3.40111 17.0688 5.6359 16.7787L5.93579 15.69C1.18124 13.4719 -1.1161 20.0585 0.529425 22.9145Z" fill="#1B9CB4"/>
<path d="M6.19808 24.675C6.58286 28.9744 7.97151 32.8185 10.0189 35.7186C12.3857 39.0709 15.6305 41.1444 19.1921 41.1444C22.7537 41.1444 25.9985 39.0709 28.3653 35.7186C30.4161 32.8137 31.8059 28.9614 32.1879 24.6533C32.8575 24.5912 33.4844 24.4078 34.038 24.1295C33.7189 29.0534 32.1686 33.4856 29.8246 36.8058C27.1227 40.6329 23.365 43 19.1921 43C15.0192 43 11.2615 40.6329 8.55956 36.8058C6.24242 33.5237 4.70097 29.155 4.3577 24.2988C4.9188 24.5248 5.54127 24.6581 6.19808 24.675Z" fill="#1B9CB4"/>
<path d="M19.1842 1.98487C15.3745 1.98487 11.9037 4.20273 9.37213 7.78861C7.71565 10.1349 6.46236 13.0592 5.77192 16.3348C5.66158 16.3286 5.55023 16.3251 5.43803 16.3251C4.84763 16.3251 4.28142 16.4131 3.75593 16.5742C4.47038 12.7594 5.89199 9.34409 7.81112 6.62565C10.7012 2.53208 14.7207 0 19.1842 0C23.6478 0 27.6672 2.53208 30.5573 6.62565C32.501 9.37867 33.9345 12.8466 34.6397 16.7203C34.0171 16.4728 33.3248 16.3321 32.5946 16.3257C31.9038 13.0537 30.6512 10.1327 28.9963 7.78861C26.4647 4.20273 22.994 1.98487 19.1842 1.98487Z" fill="#1B9CB4"/>
</svg>
