<svg width="80" height="80" viewBox="0 0 80 80" fill="none" xmlns="http://www.w3.org/2000/svg">
<path d="M23.7035 0.374014C18.5383 1.45884 12.2129 5.01259 8.54489 8.86559C4.39032 13.2423 2.10718 17.5068 0.722326 23.3798C-0.737387 29.6269 0.0111833 34.5274 3.00547 38.4926L4.54004 40.55L2.93061 43.8419C0.385469 49.0042 0.834611 51.2486 4.72718 53.119L6.67346 54.0542L7.08518 56.4857C8.09575 62.6206 8.65718 64.4162 9.92975 65.8377C11.8012 67.8951 13.5977 68.3066 18.6132 67.7455C20.8215 67.4836 22.88 67.2218 23.2169 67.1096C23.666 66.9973 24.0777 67.4836 24.6766 68.9051C25.3877 70.4763 25.5749 71.7855 25.7246 75.2645C25.9117 79.903 26.0989 80.3519 27.7832 79.8282C28.4569 79.6038 28.4943 79.3419 28.3446 75.2271C28.2323 72.2344 27.9329 70.2144 27.4089 68.7181L26.6603 66.5858L28.0077 66.2492C28.7563 66.0621 29.692 65.8377 30.1037 65.7629C31.002 65.6132 31.3763 63.7054 30.5529 63.4062C30.2909 63.294 27.7083 63.6306 24.8263 64.1543C21.9817 64.678 18.2389 65.2392 16.5546 65.3514L13.4855 65.5758L12.1755 64.2666C11.3146 63.4062 10.7906 62.471 10.6409 61.4984C10.5286 60.7128 10.042 58.1691 9.59289 55.9246L8.76946 51.8098L6.97289 51.2112C4.80204 50.5005 4.01604 49.7523 4.01604 48.5179C4.01604 48.0316 5.13889 45.3756 6.52375 42.6448L9.03146 37.6696L8.43261 34.7144C7.42204 29.7017 7.79632 25.5495 9.51803 22.9309C10.3415 21.6965 10.1169 21.2476 13.4106 30.6743C17.5652 42.4578 17.902 43.3182 19.998 47.3582C23.3292 53.7176 26.6603 58.0943 32.1249 63.294C36.242 67.2218 39.7977 69.8029 44.7383 72.4589L48.0694 74.2544L48.5186 76.873C48.7806 78.2945 49.1549 79.6038 49.3046 79.7534C49.4917 79.9404 50.0531 79.903 50.5771 79.716C51.438 79.3793 51.5129 79.2297 51.3257 77.4715L51.176 75.6011L55.0686 76.873C60.608 78.6686 66.8211 79.6412 73.4086 79.7534C78.0123 79.8656 79.0228 79.7534 79.5094 79.2671C79.8463 78.9678 79.996 78.4441 79.8837 78.1075C79.734 77.7708 77.3386 76.5363 74.5314 75.3767C67.2703 72.3092 63.0783 70.364 63.3028 70.1396C63.4151 70.0274 65.5111 70.5137 67.944 71.2244C73.8951 72.9078 78.8357 73.5811 79.6217 72.7955C80.4451 71.9726 79.996 71.2992 77.5631 69.9526C74.9057 68.4562 70.4517 65.1644 70.1897 64.491C70.0774 64.1917 70.7511 64.3788 71.9488 64.9025C73.8203 65.7629 77.8251 66.9599 78.8357 66.9599C79.0977 66.9599 79.472 66.6233 79.6966 66.1744C80.0708 65.501 79.8088 65.0895 77.376 62.5458C73.4086 58.3935 71.9863 55.7002 69.7406 48.069C67.5323 40.55 66.1474 34.9762 64.8748 28.5421C63.4151 21.285 59.6723 14.6264 54.058 9.3893C50.0157 5.64852 45.7114 3.14219 40.0223 1.30921C37.2152 0.374014 36.1672 0.261791 31.0394 0.149567C27.858 0.0747516 24.5643 0.186975 23.7035 0.374014ZM37.552 3.36664C47.2834 5.83555 54.9563 11.933 59.3729 20.7239C60.9074 23.7913 61.8431 26.6717 62.8537 31.6469C65.8106 45.9741 70.04 58.3935 73.0717 61.6106C74.3068 62.9573 72.9594 62.7328 70.6014 61.1991C66.7837 58.7302 65.586 57.0843 58.3249 44.4404C55.368 39.2781 54.4323 38.1559 53.4966 38.717C52.8229 39.1285 53.1223 40.6248 54.4697 43.6174C55.1809 45.226 56.0043 47.059 56.3037 47.6949C60.6454 57.5706 63.8269 62.3588 69.2166 67.1844C71.7991 69.4662 71.5371 69.6533 67.4949 68.4188C63.3777 67.1844 58.9237 65.2018 54.9189 62.9199C51.438 60.9747 51.1011 60.638 49.5666 58.1691C46.4974 53.2687 43.054 44.9267 42.0809 40.0263C41.9312 39.3156 41.5194 37.2955 41.1077 35.5374C40.696 33.7792 40.2843 31.9836 40.2094 31.4973C40.0597 30.9362 39.7229 30.6743 39.1614 30.6743C37.7017 30.6743 37.4397 31.2729 37.9637 33.4051C38.2257 34.4899 38.8994 37.3703 39.4609 39.8393C40.6586 45.0764 41.482 47.5827 43.4657 52.1464C44.2517 53.9794 44.8506 55.5131 44.7757 55.5879C44.5137 55.8872 37.8889 48.7423 35.8677 46.0115C33.2477 42.4204 31.6383 39.7644 29.0183 34.4899C27.858 32.2081 26.7726 30.3003 26.5854 30.3003C26.3983 30.3003 25.9117 30.5995 25.4626 30.9362L24.6766 31.6095L27.2217 36.6596C30.1412 42.4578 32.1997 45.7871 35.456 49.7897C39.6106 54.9146 46.4974 60.9747 51.9246 64.2666C52.9726 64.9399 55.106 66.6981 56.6406 68.157C59.5974 71.1122 63.4526 73.5437 68.3557 75.6011C71.1254 76.7234 71.3126 76.873 70.2646 76.9852C68.5054 77.1723 63.0783 76.3867 59.1109 75.3393C47.6577 72.3467 38.3754 66.6607 30.4032 57.795C23.9655 50.6501 21.3829 45.7497 16.2552 30.9362C14.758 26.5969 13.2609 22.3324 12.9615 21.5094C12.4 20.0131 12.4 20.0131 13.6726 18.6664L14.9452 17.3572L13.2235 15.7112L11.0526 17.5068C6.97289 20.8735 5.21375 24.6143 5.21375 29.8888C5.21375 31.7592 5.47575 34.0036 5.81261 35.1259C6.63604 37.9315 5.99975 38.4178 4.50261 36.1359C2.93061 33.6296 2.44404 31.1981 2.74347 27.3825C3.23004 20.9109 5.88747 15.3746 10.7906 10.4741C17.9395 3.32924 27.5212 0.7855 37.552 3.36664Z" fill="#1B9CB4"/>
<path d="M26.024 6.65858C25.9492 6.80821 25.762 7.59378 25.6123 8.41675C25.0883 11.2972 24.4895 11.9331 21.57 12.8683C20.0355 13.3546 20.5595 15.3372 22.2437 15.3372C23.8157 15.3372 24.976 16.6839 25.4626 19.078C25.762 20.7239 26.0989 21.3599 26.6229 21.5469C27.6709 21.8836 28.2323 21.1728 28.7563 18.9283C29.2429 16.6465 30.0663 15.7487 31.8629 15.3746C32.9109 15.1502 33.098 14.9631 33.098 14.0279C33.098 13.0927 32.9109 12.9057 31.8629 12.6812C30.1037 12.3072 29.2803 11.4094 28.7937 9.23972C28.5692 8.1923 28.2323 7.10748 27.9703 6.84562C27.5586 6.32191 26.3235 6.17228 26.024 6.65858ZM28.0452 13.9905C28.0452 14.2524 27.858 14.6264 27.596 14.8883C27.2592 15.225 26.9972 15.1876 26.4732 14.7013C25.8369 14.1401 25.8369 14.0653 26.3983 13.392C26.8849 12.8683 27.1469 12.8309 27.5586 13.1301C27.8206 13.3546 28.0452 13.7661 28.0452 13.9905Z" fill="#1B9CB4"/>
<path d="M63.228 0.972603C63.0034 1.49631 62.8537 2.31928 62.8537 2.80559C62.8537 4.00264 61.2069 5.87303 59.8594 6.17229C57.5014 6.696 57.4266 8.34194 59.7846 8.94047C61.6934 9.46418 62.3671 10.2872 62.8537 12.6064C63.6397 16.1602 65.324 16.1976 66.11 12.7561C66.634 10.362 67.3826 9.46418 69.2914 8.97788C70.4517 8.64121 70.7137 8.41676 70.7137 7.6312C70.7137 6.95785 70.4517 6.62118 69.7031 6.35933C67.7194 5.64858 66.8586 5.05006 66.5591 4.11486C66.4469 3.59115 66.11 2.46892 65.8854 1.57113C65.5111 0.261855 65.2866 0 64.5006 0C63.8643 0 63.49 0.299263 63.228 0.972603ZM65.1743 8.34194C64.6129 8.97788 64.538 8.97788 63.8269 8.26713C63.1157 7.51897 63.1157 7.48156 63.7894 6.73341L64.5006 5.94784L65.1368 6.80822C65.7357 7.59379 65.7357 7.70601 65.1743 8.34194Z" fill="#1B9CB4"/>
<path d="M72.4728 26.0732C72.3605 26.2228 72.1734 27.0458 72.0237 27.8687C71.5746 30.3751 70.8634 31.3477 69.2166 31.834C66.5217 32.657 66.3346 34.0036 68.8423 34.7518C70.6763 35.2755 71.6868 36.5474 71.9863 38.6796C72.5103 42.0089 74.2694 41.8967 75.1303 38.4926C75.7291 36.0611 76.3654 35.2755 78.2368 34.7144C80.4825 34.041 80.5948 32.4325 78.424 32.021C76.5151 31.6469 75.9537 31.011 75.2425 28.4299C74.6437 26.2976 74.4566 25.9984 73.5957 25.8861C73.0717 25.8113 72.5851 25.9235 72.4728 26.0732ZM74.4191 32.8066C74.6811 33.2929 74.6063 33.667 74.1945 34.1533C73.6331 34.7518 73.5208 34.7518 72.922 34.1907C72.398 33.7044 72.3231 33.4051 72.6226 32.8814C73.0717 31.9836 73.9326 31.9836 74.4191 32.8066Z" fill="#1B9CB4"/>
</svg>
