<svg width="71" height="80" viewBox="0 0 71 80" fill="none" xmlns="http://www.w3.org/2000/svg">
<path d="M33.882 2.43632C31.5002 4.87263 30.924 6.26481 32.1149 6.72887C32.7295 6.9609 34.9576 5.64606 34.9576 4.98865C34.9576 4.79529 35.1112 4.6406 35.3033 4.6406C35.4954 4.6406 35.7259 7.65699 35.8027 11.2921C35.918 16.5515 36.11 18.3304 36.6094 19.4905C37.2625 20.9987 37.2625 21.0374 36.3405 22.4296C35.8411 23.203 34.8808 24.9046 34.2277 26.2581C33.5362 27.5729 32.8448 28.5397 32.6527 28.4237C32.4606 28.3077 32.1149 27.2635 31.846 26.142C31.4234 24.2471 31.4618 23.8991 32.2685 22.2749C33.2289 20.264 33.0753 19.2198 31.846 19.4132C30.1941 19.6452 29.3874 21.4241 29.3874 24.6725C29.3874 27.1862 29.5411 27.9596 30.463 29.7385L31.5771 31.8268L30.7704 33.9924C29.5411 37.4728 27.774 44.7818 27.2362 48.5329C26.0837 56.8087 26.8904 61.4106 30.0405 64.4657C32.3454 66.67 35.457 67.5981 36.4558 66.3606C37.2241 65.4711 36.4942 64.5817 34.8039 64.3497C32.5374 64.0016 30.2325 61.5266 29.5795 58.7809C29.0801 56.654 29.2722 50.5439 29.9636 47.3728C30.1173 46.522 30.463 44.7818 30.7319 43.5056C31.1161 41.456 32.8448 35.5006 33.3057 34.6885C33.3826 34.5338 34.2661 35.0752 35.2649 35.8873C36.2637 36.7381 37.6851 37.7822 38.4534 38.2076L39.8363 39.0584L40.1052 43.7763C40.2589 46.406 40.5278 49.7318 40.7583 51.24C41.565 56.9634 41.6034 58.897 40.9503 60.4825C40.1052 62.5321 40.1436 63.8083 41.0272 63.8083C42.0259 63.8083 42.8711 62.7641 43.601 60.7532C44.3308 58.6649 44.3308 56.6153 43.601 53.3669C43.2936 51.9747 42.9095 48.3783 42.7558 45.3232L42.5253 39.8318H44.2156C45.9059 39.8318 48.8638 38.749 49.3248 37.9369C49.7474 37.2408 49.1711 35.9647 48.4797 35.9647C48.0955 35.9647 47.4809 36.1967 47.0583 36.4674C45.9827 37.2021 44.5613 37.5115 43.4857 37.2408C42.6022 37.0475 42.5638 36.8928 42.8327 34.8432C43.0631 32.9096 43.5625 30.4346 43.9851 29.1198C44.1004 28.8104 44.8302 28.9651 46.3668 29.6225C50.5925 31.3627 53.7809 30.4346 54.895 27.1862C55.8553 24.4405 54.3956 19.8386 52.6669 20.1866C52.0138 20.3413 51.9754 20.96 52.4748 24.6339C52.7821 27.2635 52.3596 27.8436 50.0163 27.8436C48.1339 27.8436 44.9455 26.4901 44.9455 25.6393C44.9455 24.6339 49.0559 17.0929 51.1687 14.3085C53.1663 11.6015 56.6621 8.00504 60.6188 4.56326C62.0401 3.32576 62.2322 3.01639 61.8481 2.3203C61.6176 1.89491 61.2334 1.54687 61.0029 1.54687C60.081 1.54687 54.2803 4.75662 50.9766 7.11559C47.4809 9.59057 43.3705 13.3031 40.5662 16.5901C39.4521 17.8663 39.0296 18.137 38.7607 17.7503C38.5686 17.4409 38.4149 14.3472 38.4149 10.8667V4.56326L39.7595 5.76208C40.5278 6.4195 41.1808 6.9609 41.2961 6.9609C41.9875 6.9609 42.6406 6.34215 42.6406 5.64606C42.6406 4.56326 38.0692 0 36.9936 0C36.6094 0 35.1881 1.08281 33.882 2.43632ZM49.44 12.2589C46.9046 15.7394 45.4449 18.137 44.1388 21.0374C43.4089 22.6616 42.7174 23.9378 42.5638 23.9764C42.4101 23.9764 41.8339 23.3577 41.2576 22.6229C40.2589 21.3081 40.2589 21.2307 40.9119 20.2253C41.6802 19.0265 50.0931 10.4414 50.5157 10.4414C50.6693 10.4414 50.1699 11.2535 49.44 12.2589ZM40.4509 25.4846L41.8339 26.9928L41.2961 29.0811C41.0272 30.2026 40.6814 32.0975 40.5278 33.2576C40.3741 34.4178 40.182 35.5006 40.0668 35.694C39.721 36.274 36.1485 33.7604 35.1112 32.1748C34.5734 31.3627 34.6503 31.092 36.1485 28.1143C37.8387 24.7499 38.3381 23.9764 38.7991 23.9764C38.9527 23.9764 39.721 24.6725 40.4509 25.4846Z" fill="#1B9CB4"/>
<path d="M0.46098 49.9638C0.15366 50.2732 0 52.5548 0 57.6595C0 63.7696 0.0768299 64.9684 0.61464 65.3938C1.0372 65.7418 1.38294 65.7805 1.84392 65.4711C2.38173 65.1231 2.53539 64.079 2.68905 58.5489L2.88112 52.0134H20.4752L20.3983 54.7204C20.3215 57.9688 21.3971 62.6094 22.9337 65.4325C24.2014 67.7914 27.6204 71.0012 29.9637 72.0453C32.1533 73.0121 36.5711 73.3215 39.1449 72.7027C43.8315 71.5813 48.0571 67.2887 49.6321 62.1454C50.2468 60.0184 50.4004 58.8196 50.2084 56.306C50.0931 54.6044 49.9779 52.9029 49.9011 52.5935C49.7858 52.1294 50.362 51.9747 53.2816 51.8974C56.0474 51.82 56.8157 51.6654 57.0078 51.1626C57.5456 49.8478 56.5468 49.4997 52.0523 49.4997C46.751 49.4997 46.5589 49.6544 47.212 52.8642C47.9035 56.3446 47.7498 59.9798 46.7894 62.5321C45.637 65.6258 42.0644 69.2223 39.3753 70.0344C33.3058 71.7746 27.6972 69.261 24.8545 63.5376C23.3947 60.6372 22.9337 57.9302 23.1258 53.9083C23.2411 51.6654 23.1642 50.1572 22.9337 49.9251C22.3191 49.3064 1.07562 49.3451 0.46098 49.9638Z" fill="#1B9CB4"/>
<path d="M59.9658 50.0412C59.7353 50.3119 59.62 50.8533 59.7737 51.1627C59.9658 51.6654 60.7725 51.8201 64.0762 51.8974L68.1866 52.0134L68.3018 64.8524L68.3787 77.7301H2.72746L2.61222 73.6309C2.53539 70.2665 2.38173 69.4157 1.84392 69.1063C1.38294 68.7969 1.0372 68.8356 0.61464 69.1837C0.115245 69.609 0 70.5758 0 74.4043C0 76.9567 0.15366 79.3156 0.30732 79.5863C0.576225 79.9731 7.91349 80.0504 35.7643 79.973L70.8756 79.857L70.9909 65.2005C71.0293 54.7205 70.9525 50.3892 70.6451 50.0412C70.0305 49.2677 60.5804 49.2677 59.9658 50.0412Z" fill="#1B9CB4"/>
</svg>
