<svg width="14" height="19" viewBox="0 0 14 19" fill="none" xmlns="http://www.w3.org/2000/svg">
<path fill-rule="evenodd" clip-rule="evenodd" d="M6.34383 0.000351663C10.2563 -0.0293451 12.7721 1.82175 13.8814 5.57344C14.1984 7.42454 13.8814 9.15685 12.9108 10.7704C11.1576 13.4926 9.36482 16.1752 7.52251 18.8281C7.01736 19.1251 6.58155 19.036 6.22497 18.5707C4.52133 15.9673 2.80779 13.3738 1.09424 10.7704C-0.748068 7.33545 -0.26273 4.27669 2.54035 1.60398C3.66951 0.713075 4.93734 0.178532 6.34383 0.000351663ZM6.26459 0.821961C9.9393 0.74277 12.2273 2.47508 13.1386 6.0189C13.3169 7.49384 13.0395 8.87968 12.3264 10.1764C10.593 12.8788 8.82996 15.5516 7.01736 18.1946C5.33353 15.7099 3.6596 13.2055 2.00549 10.6912C0.381085 8.03828 0.480134 5.46456 2.30263 2.97003C3.37236 1.78216 4.68971 1.06943 6.26459 0.821961Z" fill="#1B9CB4"/>
<path fill-rule="evenodd" clip-rule="evenodd" d="M6.26459 3.34619C8.47337 3.14821 9.91949 4.08861 10.6128 6.16738C10.9397 8.33524 10.078 9.80029 8.04746 10.5823C5.96744 11.008 4.4718 10.2853 3.55065 8.39464C2.92664 5.87041 3.82798 4.18759 6.26459 3.34619ZM6.34383 4.1579C8.04747 3.95002 9.20634 4.64295 9.80063 6.23667C10.1275 7.89969 9.5233 9.06776 7.97813 9.76069C6.66078 10.1368 5.56134 9.80029 4.6699 8.7609C3.77846 7.26616 3.96665 5.91001 5.22457 4.71224C5.59105 4.48456 5.95754 4.30638 6.34383 4.1579Z" fill="#1B9CB4"/>
</svg>
