<svg width="25" height="25" viewBox="0 0 25 25" fill="none" xmlns="http://www.w3.org/2000/svg">
<path fill-rule="evenodd" clip-rule="evenodd" d="M13.5748 0C19.815 1.19685 23.6321 4.90446 25 11.1229C24.7525 11.8644 24.3095 11.9945 23.6842 11.5131C22.4987 5.90617 19.0855 2.49776 13.4706 1.31393C13.0667 0.845596 13.1058 0.403285 13.5748 0Z" fill="#1B9CB4"/>
<path fill-rule="evenodd" clip-rule="evenodd" d="M4.28609 1.47004C4.96352 1.39198 5.57582 1.53508 6.13601 1.91235C7.4518 3.09619 8.70245 4.35808 9.90099 5.67201C10.3179 6.46557 10.3439 7.28515 10.0052 8.11773C9.35383 8.97634 8.62428 9.75689 7.80354 10.4594C9.3408 13.3604 11.5555 15.572 14.4476 17.0941C15.2423 16.4176 16.024 15.7151 16.7926 14.9996C17.7045 14.5183 18.5904 14.5833 19.4372 15.1947C20.5967 16.3526 21.7561 17.5104 22.9026 18.6552C23.6191 19.6959 23.6191 20.7366 22.9026 21.7774C22.0688 22.61 21.248 23.4295 20.4143 24.2621C19.2288 24.9776 17.9521 25.1728 16.6102 24.8475C14.0177 24.1841 11.6467 23.0783 9.47108 21.5302C5.53674 18.6422 2.61855 14.9476 0.729547 10.4594C0.299635 9.32759 0.0651381 8.15676 0 6.94691C0.0260552 5.97122 0.338718 5.08659 0.924961 4.30604C1.65451 3.57753 2.39708 2.84901 3.12663 2.10749C3.47837 1.82129 3.8692 1.61314 4.28609 1.47004ZM4.58572 2.836C4.82022 2.836 5.05472 2.88804 5.27619 2.9791C6.50078 4.16294 7.6863 5.3858 8.84575 6.63468C8.93695 6.99894 8.87181 7.32417 8.65034 7.61037C7.93382 8.32588 7.2173 9.04138 6.50078 9.75689C6.35748 10.0691 6.3184 10.3943 6.39656 10.7326C7.84263 13.6076 9.90099 15.9232 12.5977 17.7055C13.21 18.0958 13.8614 18.408 14.5519 18.6292C14.7994 18.6031 15.0208 18.5251 15.2423 18.382C15.9588 17.6665 16.6754 16.951 17.3919 16.2355C17.7045 16.0924 18.0302 16.0533 18.3689 16.1314C19.5284 17.1851 20.6488 18.2779 21.7431 19.3967C22.0948 19.774 22.16 20.2033 21.9385 20.6586C21.0917 21.6863 20.1537 22.584 19.1376 23.3775C17.7697 23.6767 16.4278 23.5466 15.1381 22.9872C9.18447 20.4504 4.87233 16.2485 2.18864 10.3553C1.6024 9.04138 1.3679 7.67542 1.49818 6.25742C1.57634 5.93219 1.70662 5.64599 1.889 5.38581C2.68369 4.39711 3.5826 3.55151 4.58572 2.836Z" fill="#1B9CB4"/>
<path fill-rule="evenodd" clip-rule="evenodd" d="M13.2751 4.59224C16.8317 5.06058 19.1506 7.01195 20.2579 10.4464C20.3882 10.8627 20.4273 11.279 20.3622 11.7213C20.0104 12.0725 19.6196 12.1116 19.1897 11.8254C18.4732 8.50801 16.4539 6.49159 13.1318 5.77608C12.8973 5.33377 12.9495 4.94349 13.2751 4.59224Z" fill="#1B9CB4"/>
</svg>
