<svg width="145" height="145" viewBox="0 0 145 145" fill="none" xmlns="http://www.w3.org/2000/svg">
<path d="M52.3822 0.648795C51.1355 1.10268 49.492 1.72678 48.6987 2.18067C45.9218 3.65582 41.1049 8.81881 37.0813 14.6626C31.3577 22.9461 28.7509 25.6695 25.124 27.485C22.4605 28.79 21.4971 28.9602 18.4936 28.7332C14.6967 28.3928 11.2399 26.9744 7.83967 24.1943C5.17618 22.0384 2.56937 22.1518 0.869272 24.478C-0.150786 25.8964 -0.207456 26.2936 0.359243 29.0169C2.11601 37.3004 6.87628 42.6336 15.4334 45.8108L16.9635 46.4349V70.1507C16.9635 96.7033 17.1902 98.8592 21.0438 106.178C25.294 114.348 44.6184 130.632 62.4694 141.128C71.3666 146.291 73.6334 146.291 82.5306 141.128C100.268 130.688 119.139 114.859 123.73 106.519C127.753 99.1429 128.036 96.9869 128.036 70.1507C128.036 48.0236 128.093 46.3782 129.057 46.0945C137.387 43.3145 142.884 37.3004 144.641 29.0169C145.207 26.2936 145.151 25.8964 144.131 24.478C142.261 21.9249 140.107 22.0951 135.8 25.0454C131.04 28.2793 128.717 29.0737 124.58 28.6765C118.516 28.1659 115.512 25.6127 108.145 14.9463C103.215 7.79756 98.6248 3.20193 94.7713 1.49984C89.1043 -0.996557 80.6038 -0.315722 75.2768 3.08845C74.0868 3.82602 72.9534 4.45012 72.7267 4.45012C72.5567 4.45012 70.4599 3.48561 68.1364 2.35088C64.5096 0.535322 63.3195 0.251641 59.2959 0.081432C56.5191 -0.0320405 53.7423 0.194905 52.3822 0.648795ZM66.663 7.05999C68.9298 8.30819 71.3099 9.1025 72.5 9.1025C73.6901 9.1025 76.0702 8.30819 78.337 7.05999C81.7939 5.24443 82.7006 5.01749 86.3841 5.01749C88.8209 5.01749 91.3711 5.3579 92.6178 5.92527C95.9047 7.28694 99.8149 11.3719 104.802 18.6342C112.452 29.8112 117.666 33.6126 125.486 33.6126C129.963 33.6126 133.703 32.4778 137.557 29.868C139.937 28.3361 139.994 28.2793 139.654 29.5275C137.897 35.2579 133.647 39.3997 127.47 41.3287C119.083 43.9953 104.518 44.1088 94.8846 41.5556C88.9909 40.0238 82.5306 36.5628 78.677 32.8182C76.7502 30.946 74.5401 29.2439 73.8034 29.0737C71.5366 28.5063 69.9499 29.3006 66.323 32.8182C62.4694 36.5628 56.0091 40.0238 50.1154 41.5556C40.5382 44.1088 25.974 43.9953 17.4735 41.3854C11.4099 39.4564 7.10296 35.2579 5.34619 29.5275C5.00617 28.2793 5.06284 28.3361 7.44298 29.9247C11.0698 32.3644 15.0367 33.5558 19.5703 33.6126C22.9705 33.6126 24.1039 33.3856 27.2774 31.797C31.6977 29.641 34.9279 26.3503 40.1982 18.5774C47.5653 7.79756 51.1921 5.07422 58.4459 5.01749C62.3561 5.01749 63.1495 5.1877 66.663 7.05999ZM76.0135 37.0167C82.9839 43.3712 93.6945 47.3427 105.539 47.9668L111.659 48.3072L111.319 49.7824C111.149 50.5767 110.072 53.1866 108.939 55.5127C106.162 61.2431 100.722 66.7465 96.1313 68.4486C90.2943 70.6613 88.6509 70.1507 85.3641 65.1579C84.684 64.0799 83.2106 62.6048 82.1906 61.9239C80.4338 60.7325 79.6404 60.619 72.5567 60.619C63.7162 60.619 62.4694 61.0729 59.5226 65.2714C56.9158 69.016 56.0091 69.6968 54.0256 69.6968C47.7919 69.6968 39.9148 63.4558 36.0613 55.5127C34.9279 53.1866 33.8511 50.5767 33.6811 49.7824L33.3411 48.3072L39.4615 47.9668C51.3055 47.3427 62.1294 43.3145 68.9298 37.0735C70.7432 35.3714 72.33 34.0097 72.3867 33.953C72.5 33.953 74.1434 35.3714 76.0135 37.0167ZM25.634 47.9101C27.9575 48.2505 28.2408 48.4207 28.5242 50.0661C28.7509 51.0306 29.9976 54.0943 31.3577 56.9312C35.7213 65.8387 42.5216 71.9663 50.2854 73.952C55.9524 75.4272 59.976 73.8953 62.6394 69.3564C64.9062 65.4983 65.6429 65.1579 72.5 65.1579C79.3571 65.1579 80.0938 65.4983 82.3606 69.3564C85.024 73.8953 89.0476 75.4272 94.7146 73.952C102.478 71.9663 109.279 65.8387 113.642 56.9312C115.002 54.0943 116.249 50.9738 116.476 49.9526C116.703 48.9881 117.156 48.137 117.553 48.137C117.949 48.137 119.423 47.9668 120.896 47.7966L123.616 47.3995L123.39 71.172C123.106 98.1217 123.05 98.7458 118.403 105.838C111.942 115.653 79.2437 140.05 72.5 140.05C67.7397 140.05 47.6219 126.433 33.6811 113.724C28.1842 108.675 24.8406 103.966 23.0839 98.689C21.8938 95.1146 21.8371 93.8664 21.6104 71.2287C21.4404 50.9171 21.5538 47.5697 22.2338 47.5697C22.6872 47.5697 24.2173 47.7399 25.634 47.9101Z" fill="white"/>
</svg>
