<svg width="128" height="145" viewBox="0 0 128 145" fill="none" xmlns="http://www.w3.org/2000/svg">
<path d="M87.7668 5.42587C68.5 8.412 52.5867 10.6668 52.4037 10.5449C52.2208 10.3621 51.977 8.35106 51.794 6.15717C51.4892 2.0741 51.4892 2.0741 49.6601 2.0741H47.8309L47.648 6.76658C47.4651 10.9106 47.3432 11.52 46.0018 12.3732C43.3801 14.0796 44.3556 19.4424 47.2212 19.4424C47.709 19.4424 48.5626 20.1128 49.1113 21.0269C50.3307 22.8551 52.4647 22.7942 53.3183 20.844C54.05 19.1986 51.977 19.3815 92.9493 16.3344C111.423 14.9327 126.849 13.5311 127.276 13.2264C128.251 12.4341 128.251 10.6059 127.215 9.81365C126.666 9.32612 118.557 9.75271 99.3512 11.2762C84.4134 12.4341 71.4266 13.2873 70.3901 13.2264C69.4146 13.1045 80.2064 11.2762 94.4736 9.1433C128.861 4.02422 127.276 4.32893 127.703 2.92728C128.251 1.22092 126.971 -0.058853 124.715 0.00208841C123.679 0.0630298 107.034 2.50069 87.7668 5.42587ZM67.8293 13.7748C67.4025 13.8967 66.549 13.8967 66.0002 13.7748C65.3905 13.592 65.7563 13.4701 66.7319 13.4701C67.7684 13.4701 68.1952 13.592 67.8293 13.7748Z" fill="#1B9CB4"/>
<path d="M33.3809 12.3732C23.0768 16.6391 15.4555 23.5254 10.6998 32.8495C6.12698 41.8078 4.72465 50.4615 6.24892 61.3091L7.04154 67.5251L4.90756 68.9268C3.68815 69.719 2.10291 71.4254 1.37126 72.7661C-2.34795 79.2868 1.98097 91.0485 8.56581 92.3892C9.54134 92.572 10.334 92.7549 10.334 92.8158C10.334 92.8767 10.7608 96.1066 11.2485 99.885C12.6508 110.55 15.9433 116.278 22.833 120.361C26.0034 122.19 25.9425 121.336 24.6011 133.89C24.0524 139.009 23.8085 143.641 23.9914 144.128C24.5401 145.53 27.3448 145.164 27.9545 143.58C28.2594 142.849 28.8081 138.4 29.2349 133.707C29.6617 129.015 30.0885 125.054 30.2104 124.932C30.3324 124.81 33.3809 126.334 36.9782 128.345C45.3921 133.037 47.2212 133.647 52.7086 133.281C56.7937 133.037 57.7692 132.671 63.8053 129.32C67.4026 127.309 70.4511 125.846 70.5121 126.029C70.573 126.212 71.0608 130.356 71.6095 135.17C72.0973 139.984 72.707 144.128 72.8899 144.433C73.4387 145.347 76.1823 145.043 76.6091 144.007C76.975 143.092 76.1214 132.611 75.2068 125.724L74.841 123.226L78.3773 121.154C86.2425 116.644 89.6569 111.342 91.1202 101.104C91.6079 97.5692 92.0347 94.4003 92.0347 94.0346C92.0347 93.608 93.559 92.572 95.3881 91.6579C99.2903 89.7687 101.424 86.7217 102.522 81.4807C103.558 76.4835 102.461 73.1927 98.6196 69.719L95.571 66.9767L96.3027 60.5778C98.1318 45.4643 94.5345 33.7026 85.0841 23.3426C83.133 21.1487 81.06 19.1377 80.4503 18.8329C78.987 18.0407 77.5237 18.6501 77.0359 20.1737C76.7311 21.1487 77.4627 22.1847 80.0845 24.8661C82.9501 27.7304 83.4988 28.6445 83.4988 30.4118C83.4988 34.1902 81.7916 40.5281 79.7796 44.4893C77.0359 49.974 77.1579 52.4726 80.7551 63.6249C83.9866 73.6802 85.0231 75.4475 87.0961 74.3506C87.7668 73.924 88.3765 73.3146 88.3765 72.9489C88.3765 72.5223 87.0351 67.8908 85.3279 62.6498C83.6817 57.4089 82.2794 52.3507 82.2794 51.4975C82.2794 50.5834 83.072 48.2676 84.0476 46.3785C85.0231 44.4283 86.2425 41.2594 86.7912 39.3093C87.279 37.3591 87.8278 35.6528 87.9497 35.4699C88.3765 35.1043 90.6324 41.3203 91.486 44.9159C92.6444 50.1568 92.1567 57.3479 89.0472 81.6026C85.5718 108.173 85.0841 109.94 80.5722 114.023C79.3528 115.12 73.0728 118.899 66.7319 122.433C55.3913 128.71 55.0865 128.832 51.1843 128.832C47.2822 128.832 47.0383 128.71 35.6368 122.433C22.5891 115.181 19.0528 112.256 17.4675 107.442C16.1871 103.602 10.334 58.262 10.334 52.2898C10.334 47.1707 11.4314 41.8688 13.4435 37.4201L14.7848 34.373L15.8213 38.3951C16.431 40.65 17.7114 44.2455 18.8089 46.3785C19.8454 48.5723 20.699 50.8272 20.699 51.4975C20.699 52.1679 19.3576 56.9823 17.6504 62.2232C16.0042 67.4642 14.6019 72.1567 14.6019 72.6442C14.6019 74.0458 16.431 74.899 17.7724 74.2287C19.2357 73.4364 24.9669 55.3978 24.9669 51.4975C24.9669 49.3646 24.3572 47.2926 22.8939 44.1846C20.577 39.3702 19.4796 34.8605 19.4796 30.4728C19.4796 27.6085 19.6625 27.3647 23.0159 24.2567C26.7961 20.7221 32.1615 17.6141 37.344 15.8468C40.2096 14.8718 40.5145 14.567 40.5145 12.9826C40.5145 11.459 40.2706 11.2153 38.6853 11.0324C37.7098 10.9715 35.332 11.5809 33.3809 12.3732ZM8.74872 80.3838C9.23649 84.2231 9.54134 87.5139 9.35843 87.6358C8.68775 88.3061 6.00504 84.7715 5.09047 82.0901C3.93203 78.5555 4.29786 75.8741 6.18795 73.8021C7.83416 72.0957 7.65125 71.6691 8.74872 80.3838ZM96.8514 74.0459C98.4976 76.1179 98.4976 80.3838 96.9734 83.8574C95.9978 85.9294 94.2297 87.6967 93.1322 87.6967C93.0103 87.6967 93.3151 84.284 93.8029 80.079C94.2906 75.8741 94.9004 72.4614 95.1442 72.4614C95.3881 72.4614 96.1807 73.1927 96.8514 74.0459Z" fill="#1B9CB4"/>
<path d="M37.6488 21.5752C37.0391 22.9159 37.1001 23.3425 38.1976 24.3785C39.7828 25.963 41.8558 25.4755 42.4045 23.3425C43.1972 20.1736 38.9902 18.6501 37.6488 21.5752Z" fill="#1B9CB4"/>
<path d="M61.7323 20.5393C61.0616 20.9658 60.7567 22.1237 60.8787 23.5254C60.8787 23.952 61.4884 24.5614 62.159 24.927C63.8053 25.8412 65.8173 24.6833 65.8173 22.916C65.8173 20.6002 63.6833 19.3204 61.7323 20.5393Z" fill="#1B9CB4"/>
<path d="M26.0644 26.4506C25.4547 27.7913 25.5157 28.2179 26.6132 29.2539C28.1984 30.8384 30.2714 30.3508 30.8202 28.2179C31.6128 25.0489 27.4058 23.5254 26.0644 26.4506Z" fill="#1B9CB4"/>
<path d="M73.2557 25.6584C71.1827 27.7304 73.6215 31.1431 76.1823 29.8024C78.3163 28.6446 77.4017 24.9271 74.9629 24.9271C74.4142 24.9271 73.6825 25.2318 73.2557 25.6584Z" fill="#1B9CB4"/>
<path d="M38.9902 31.2649C37.283 33.3978 39.6609 36.9324 41.9168 35.5308C44.0508 34.1901 43.2582 30.4117 40.8194 30.4117C40.2096 30.4117 39.417 30.8383 38.9902 31.2649Z" fill="#1B9CB4"/>
<path d="M49.3552 31.5696C48.0748 34.0682 50.6356 36.5059 52.8915 34.9214C55.2084 33.3369 54.2329 30.4118 51.3672 30.4118C50.6356 30.4118 49.721 30.9602 49.3552 31.5696Z" fill="#1B9CB4"/>
<path d="M60.6957 31.3868C60.147 31.8743 59.7202 32.7275 59.7202 33.1541C59.7202 34.2511 61.3664 35.8965 62.4639 35.8965C63.5614 35.8965 65.2076 34.2511 65.2076 33.1541C65.2076 32.0572 63.5614 30.4117 62.4639 30.4117C62.0371 30.4117 61.1835 30.8383 60.6957 31.3868Z" fill="#1B9CB4"/>
<path d="M28.1374 34.7996C26.4912 36.445 27.7716 38.9436 30.2714 38.9436C31.9786 38.9436 33.076 36.7497 32.1615 35.1043C31.5518 33.8854 29.2349 33.7026 28.1374 34.7996Z" fill="#1B9CB4"/>
<path d="M71.4266 34.7996C69.3536 36.8716 71.7924 40.2844 74.3532 38.9436C75.5726 38.2733 75.8165 37.6029 75.5726 35.8966C75.3287 34.1293 72.768 33.4589 71.4266 34.7996Z" fill="#1B9CB4"/>
<path d="M40.3315 41.7469C38.0147 43.3314 38.9902 46.2565 41.8558 46.2565C43.3191 46.2565 44.7824 44.2455 44.2337 42.9048C43.624 41.3203 41.7339 40.7718 40.3315 41.7469Z" fill="#1B9CB4"/>
<path d="M49.7211 41.7469C48.4407 43.0266 48.5016 44.0017 49.904 45.2815C52.2209 47.3535 55.1474 44.7939 53.6232 41.9906C52.8306 40.528 51.0014 40.4062 49.7211 41.7469Z" fill="#1B9CB4"/>
<path d="M60.4518 41.1984C57.952 42.1735 58.5008 46.2565 61.1225 46.2565C63.8052 46.2565 64.9027 43.6361 63.0126 41.7469C62.0371 40.7109 61.7322 40.6499 60.4518 41.1984Z" fill="#1B9CB4"/>
<path d="M30.9421 44.3065C29.5398 44.6112 28.8691 47.2317 29.8446 48.3896C31.7347 50.7053 35.5149 48.3286 34.1735 45.7081C33.4419 44.3674 32.4054 43.9408 30.9421 44.3065Z" fill="#1B9CB4"/>
<path d="M70.2072 44.2455C67.7074 45.2206 68.2562 49.3036 70.8779 49.3036C73.5606 49.3036 74.6581 46.6832 72.768 44.794C71.7925 43.758 71.4876 43.697 70.2072 44.2455Z" fill="#1B9CB4"/>
</svg>
