<svg width="35" height="50" viewBox="0 0 35 50" fill="none" xmlns="http://www.w3.org/2000/svg">
<path d="M7.31504 0.33456C5.49733 0.920583 4.14871 1.72148 3.01509 2.87399C1.70556 4.22185 1.02147 5.45249 0.454662 7.48404C-0.620326 11.3127 0.2983 18.3645 2.29191 21.6658L2.95645 22.7597L2.07692 23.4239C-0.522599 25.3773 -0.698507 28.9715 1.68601 31.1398C2.1551 31.5891 2.87827 32.0579 3.24963 32.1751L3.93371 32.4095L4.07053 34.1871C4.12917 35.1834 4.32462 36.5508 4.50052 37.254C4.89143 38.8363 5.92733 41.1022 6.63096 41.8445C7.0805 42.3329 7.23686 42.3915 7.9014 42.2743C8.52684 42.1766 8.6832 42.2157 8.78093 42.5087C8.91775 42.958 8.46821 45.1458 7.9014 46.728C7.29549 48.5252 7.37367 49.2089 8.31184 49.6777C9.13274 50.1074 25.8244 50.1074 26.6453 49.6777C27.5834 49.2089 27.6616 48.5252 27.0557 46.728C26.4889 45.1458 26.0394 42.958 26.1762 42.5087C26.2739 42.2157 26.4303 42.1766 27.0557 42.2743C27.7203 42.3915 27.8766 42.3329 28.3262 41.8445C29.0298 41.1022 30.0657 38.8363 30.4566 37.254C30.6325 36.5508 30.828 35.1834 30.8866 34.1871L31.0234 32.4095L31.7075 32.1751C32.6652 31.8626 34.0725 30.5147 34.5415 29.4794C35.6947 26.8814 34.2288 23.6387 31.4925 22.7011C30.9257 22.5058 30.867 22.4081 30.8084 21.5877L30.7498 20.6696L32.1179 20.7086C33.7793 20.7672 34.4438 20.3765 34.8347 19.1459C35.0693 18.4231 35.0693 18.2473 34.737 17.6027C34.4634 17.0167 34.0725 16.6846 32.8216 16.0204C30.2807 14.6726 29.2252 13.3443 29.1862 11.5471C29.1471 8.32401 27.0948 4.98368 24.2217 3.53815C22.3649 2.58098 21.7003 2.50285 15.4849 2.50285C10.11 2.50285 9.19138 2.42471 9.85592 2.01449C10.1882 1.79962 10.0709 0.76431 9.66047 0.354094C9.19138 -0.114724 8.72229 -0.114724 7.31504 0.33456ZM7.78412 3.03027C7.45185 4.45625 7.43231 6.83941 7.74503 7.15196C8.09685 7.50357 8.83957 7.42544 9.07411 7.01522C9.17183 6.80035 9.26956 6.05805 9.26956 5.35482V4.06557H14.7031C20.7426 4.06557 21.9153 4.20231 23.5962 5.10088C25.8635 6.29246 27.1534 8.36307 27.4466 11.2932C27.5639 12.3285 27.7984 13.4029 28.0525 13.9303C28.5998 15.0828 30.3002 16.626 31.9811 17.466C33.1147 18.0325 33.3297 18.2278 33.2711 18.5794C33.2125 18.9896 33.1538 19.0092 30.867 18.9701C26.1371 18.8724 22.7167 18.1301 18.1626 16.1376C12.5141 13.6959 11.6345 13.3833 10.1491 13.3638C8.54639 13.3443 7.54958 13.774 6.53323 14.9265C5.45824 16.1572 4.38325 18.9896 4.38325 20.611C4.38325 21.5681 4.10962 21.5291 3.54281 20.5133C2.50691 18.5794 1.64692 14.4772 1.64692 11.3909C1.66647 7.09336 3.34736 3.92883 6.37687 2.50285C8.0773 1.70195 8.09685 1.70195 7.78412 3.03027ZM12.905 15.7665C13.98 16.1767 15.8172 16.9581 16.9899 17.505C20.3126 19.0092 23.8698 20.0445 26.8603 20.3765C27.4466 20.4351 28.2284 20.5328 28.5607 20.5914L29.1862 20.6891L29.3034 26.4321H30.6716L30.7302 25.3968C30.7693 24.7717 30.8866 24.381 31.0234 24.381C31.5902 24.381 32.5675 25.221 32.9193 26.0024C33.5838 27.4479 33.3688 28.6785 32.2743 29.8115C31.5316 30.5733 30.7107 30.8273 28.8343 30.8273C27.4271 30.8273 27.388 30.8468 26.6453 31.5891C25.9807 32.2337 25.883 32.4681 25.883 33.2104C25.883 34.7536 25.3357 35.7108 24.4758 35.7108C24.3194 35.7108 24.1044 35.3397 23.9676 34.8513C23.6939 33.8355 22.6776 32.8588 21.6808 32.6635C21.2312 32.5854 20.3517 32.683 19.2376 32.937L17.4786 33.3472L15.7195 32.937C14.6054 32.683 13.7259 32.5854 13.2763 32.6635C12.2795 32.8588 11.2632 33.8355 10.9895 34.8513C10.8527 35.3397 10.6377 35.7108 10.4814 35.7108C9.62138 35.7108 9.07411 34.7536 9.07411 33.2104C9.07411 32.4681 8.97638 32.2337 8.31184 31.5891C7.56913 30.8468 7.53004 30.8273 6.12278 30.8273C4.14871 30.8273 3.38645 30.5733 2.56555 29.6552C1.09965 28.0534 1.5101 25.5531 3.38645 24.5764L4.16826 24.1857L4.22689 25.1819C4.26598 25.9633 4.38325 26.2563 4.71552 26.4712C5.08688 26.7251 5.18461 26.7056 5.53642 26.354C5.90778 25.9828 5.94687 25.7094 5.94687 23.3457C5.94687 18.8724 7.00231 15.9814 8.87866 15.2195C9.83637 14.8484 10.9309 14.9851 12.905 15.7665ZM7.0805 32.7026C7.43231 32.937 7.51049 33.1909 7.51049 34.0113C7.51049 35.3787 8.11639 36.414 9.25002 37.0196C10.8918 37.8791 12.0645 37.4689 12.4163 35.9062C12.5336 35.4178 12.7486 34.8708 12.9245 34.695C13.3154 34.2653 14.3122 34.2458 15.6022 34.6364C16.8336 35.0076 18.1236 35.0076 19.3549 34.6364C20.6449 34.2458 21.6417 34.2653 22.0326 34.695C22.2085 34.8708 22.4235 35.4178 22.5408 35.9062C22.8926 37.4689 24.0653 37.8791 25.7071 37.0196C26.8407 36.414 27.4466 35.3787 27.4466 34.0113C27.4466 32.8979 27.8571 32.39 28.7952 32.39H29.2643L29.1471 34.2848C29.0298 36.3554 28.4825 38.426 27.7203 39.7739C27.3098 40.4771 27.173 40.5748 26.8603 40.399C25.9612 39.9106 25.1207 40.3209 24.808 41.3757C24.1435 43.6221 21.6612 46.3178 19.1204 47.5485C17.7131 48.2126 17.5567 48.2517 16.9117 48.0173C14.0386 47.0406 10.9309 43.9737 10.1491 41.3757C9.83637 40.3209 8.99593 39.9106 8.09685 40.399C7.78412 40.5748 7.64731 40.4771 7.23686 39.7739C6.47459 38.426 5.92733 36.3554 5.81006 34.2848L5.69278 32.39H6.16187C6.4355 32.39 6.84595 32.5268 7.0805 32.7026ZM12.9832 47.7633L13.4718 48.115L12.3968 48.2126C11.8104 48.2712 10.8527 48.2712 10.2859 48.2517C9.40638 48.1931 9.25002 48.115 9.3282 47.861C9.38683 47.6657 9.60183 46.982 9.77774 46.3178L10.1296 45.0872L11.3218 46.2592C11.9668 46.9038 12.7095 47.5875 12.9832 47.7633ZM25.6289 47.861C25.7266 48.1736 25.5507 48.2126 23.6549 48.2126H21.5635L24.808 45.1262L25.1598 46.3374C25.3553 46.982 25.5703 47.6852 25.6289 47.861Z" fill="#1B9CB4"/>
<path d="M8.52685 21.8806C8.39004 22.0174 8.29231 22.2518 8.29231 22.4276C8.29231 23.1113 8.70276 23.209 11.7518 23.209H14.7422L14.8595 22.7206C15.0941 21.7634 14.7618 21.6462 11.6345 21.6462C9.66048 21.6462 8.68322 21.7244 8.52685 21.8806Z" fill="#1B9CB4"/>
<path d="M20.2149 21.9393C19.9022 22.3104 20.1172 23.1504 20.5276 23.2481C20.7035 23.2871 22.0912 23.2676 23.5962 23.209C25.9221 23.1308 26.3716 23.0527 26.5475 22.7597C26.7039 22.5253 26.7039 22.3299 26.5475 22.076C26.3521 21.783 25.9416 21.7439 23.4008 21.6853C20.9772 21.6463 20.4299 21.6853 20.2149 21.9393Z" fill="#1B9CB4"/>
<path d="M9.38683 25.2796C9.21093 25.4359 9.07411 25.6703 9.07411 25.768C9.07411 26.0805 9.85592 26.7251 10.2468 26.7251C10.4618 26.7251 10.8136 26.9009 11.0286 27.1158C11.2436 27.3307 11.5564 27.5065 11.7127 27.5065C11.8691 27.5065 12.1036 27.3307 12.2404 27.1158C12.3773 26.9009 12.6704 26.7251 12.8854 26.7251C13.8236 26.7251 14.4881 25.768 13.9213 25.2015C13.55 24.8303 9.77774 24.8889 9.38683 25.2796Z" fill="#1B9CB4"/>
<path d="M21.0358 25.2015C20.469 25.768 21.1335 26.7251 22.0717 26.7251C22.2867 26.7251 22.5799 26.9009 22.7167 27.1158C22.8535 27.3307 23.088 27.5065 23.2444 27.5065C23.4008 27.5065 23.7135 27.3307 23.9285 27.1158C24.1435 26.9009 24.4953 26.7251 24.7103 26.7251C25.1012 26.7251 25.883 26.0805 25.883 25.768C25.883 25.6703 25.7462 25.4359 25.5703 25.2796C25.1794 24.8889 21.4072 24.8303 21.0358 25.2015Z" fill="#1B9CB4"/>
<path d="M15.954 30.378C15.7586 30.7687 15.8563 31.2375 16.1886 31.4524C16.3058 31.5305 16.8922 31.6087 17.4785 31.6087C18.0649 31.6087 18.6513 31.5305 18.7685 31.4524C19.1008 31.2375 19.1985 30.7687 19.0031 30.378C18.8663 30.1045 18.5731 30.0459 17.4785 30.0459C16.384 30.0459 16.0908 30.1045 15.954 30.378Z" fill="#1B9CB4"/>
<path d="M14.3904 36.9219C14.2732 37.0391 14.1559 37.3126 14.1559 37.4884C14.1559 38.1721 14.6054 38.2698 17.5763 38.2112C20.0781 38.1526 20.4885 38.1135 20.684 37.8009C20.8403 37.5665 20.8403 37.3712 20.684 37.1173C20.4885 36.8242 20.0781 36.7852 17.5568 36.7266C15.4459 36.6875 14.5663 36.7461 14.3904 36.9219Z" fill="#1B9CB4"/>
<path d="M15.9345 40.4381C15.8368 40.692 15.8368 41.0241 15.9541 41.239C16.1104 41.532 16.345 41.571 17.5372 41.532L18.9445 41.4734V40.106L17.5177 40.0474C16.1886 39.9888 16.0909 40.0279 15.9345 40.4381Z" fill="#1B9CB4"/>
</svg>
