<svg width="60" height="60" viewBox="0 0 60 60" fill="none" xmlns="http://www.w3.org/2000/svg">
<path d="M26.9202 0.0954011C26.7322 0.142307 25.7687 0.306477 24.8051 0.447194C22.22 0.869346 18.8829 1.97163 16.2978 3.30844C8.14304 7.4596 2.45584 14.9411 0.458266 24.1346C-0.152755 26.9255 -0.152755 33.0701 0.458266 35.861C1.09279 38.7692 1.91532 41.091 3.25487 43.6943C7.39102 51.7621 14.9818 57.508 24.1001 59.4546C32.2079 61.1667 42.2663 58.751 48.588 53.5679L49.199 53.052L48.165 51.7386L46.2849 53.0285C43.1593 55.2096 39.7282 56.7106 35.6155 57.7191C34.746 57.9302 32.8189 58.024 29.7403 58.0005C25.5102 58.0005 24.9696 57.9536 22.8076 57.3439C14.9348 55.2096 8.23705 49.7217 4.61792 42.4747C2.64384 38.5347 1.77431 34.7587 1.77431 29.9978C1.77431 23.8766 3.32537 18.8811 6.77999 13.8388C8.33105 11.5639 11.4802 8.42117 13.8302 6.82637C16.2978 5.13777 19.964 3.42571 22.8076 2.65176C24.9931 2.04199 25.4867 1.99508 29.8578 1.99508C34.0645 1.97163 34.7695 2.01854 36.6731 2.5345C44.9924 4.69216 51.5726 9.96906 55.3327 17.5209C57.3068 21.461 58.1763 25.2369 58.1763 29.9978C58.1763 36.119 56.5548 41.2786 53.0532 46.2741L51.7606 48.1503L53.0767 49.1823L53.5937 48.5725C57.8708 43.3659 60.3384 35.6969 59.9624 28.5906C59.7274 23.9235 58.8109 20.429 56.6958 16.3013C51.5726 6.2635 41.0207 -0.115675 29.7403 0.00158961C28.3773 0.0250425 27.1082 0.0719482 26.9202 0.0954011Z" fill="#1B9CB4"/>
<path d="M37.9656 6.07585C37.9656 6.99052 37.9891 7.01397 38.7881 7.01397C39.5872 7.01397 39.6106 6.99052 39.6106 6.07585C39.6106 5.16119 39.5872 5.13774 38.7881 5.13774C37.9891 5.13774 37.9656 5.16119 37.9656 6.07585Z" fill="#1B9CB4"/>
<path d="M41.4907 7.9521C41.4907 8.86676 41.5142 8.89021 42.3132 8.89021C43.1123 8.89021 43.1358 8.86676 43.1358 7.9521C43.1358 7.03744 43.1123 7.01398 42.3132 7.01398C41.5142 7.01398 41.4907 7.03744 41.4907 7.9521Z" fill="#1B9CB4"/>
<path d="M7.4615 23.0792C6.80348 24.4395 6.23946 25.659 6.23946 25.7763C6.23946 25.917 6.70947 26.0108 7.29699 26.0108H8.35453V40.106L13.6422 39.9653L13.7127 30.2792L13.7597 20.6166H8.70704L7.4615 23.0792ZM11.8797 38.2063H10.2346V24.1346H9.64708C8.96555 24.1346 8.94205 24.0877 9.41207 23.1965C9.74108 22.5867 9.90559 22.4929 10.8221 22.4929H11.8797V38.2063Z" fill="#1B9CB4"/>
<path d="M19.635 20.9919C18.1309 21.5313 17.0264 22.4929 16.2038 23.9469L15.5223 25.1899V30.3496C15.5223 36.2362 15.5928 36.5411 17.5669 38.3705C18.8124 39.4962 20.011 39.9418 21.75 39.9183C23.3246 39.9183 24.4526 39.4493 25.6982 38.3235C27.5077 36.7053 27.7427 35.8844 27.8132 30.889C27.9072 26.0108 27.6957 24.7209 26.4972 23.0557C25.0871 21.1091 21.938 20.171 19.635 20.9919ZM24.1941 23.2668C25.8157 24.5098 25.9802 25.1665 25.9802 30.2558C25.9802 34.3835 25.9332 34.876 25.4867 35.8141C23.9591 38.9333 19.3529 38.9568 17.7549 35.8375C17.3319 35.0401 17.2849 34.4538 17.2849 30.373C17.2849 25.5183 17.3789 24.9085 18.4129 23.8062C19.3764 22.7978 20.2695 22.4694 21.891 22.5632C23.0426 22.6101 23.5126 22.7508 24.1941 23.2668Z" fill="#1B9CB4"/>
<path d="M20.3165 24.4629C19.0944 25.1665 18.8829 26.0577 18.9769 30.7014C19.0474 34.7353 19.0709 34.8994 19.6114 35.4858C20.5045 36.4473 21.5855 36.6819 22.643 36.1659C24.1706 35.4154 24.3586 34.7353 24.2881 29.9509L24.2176 25.7763L23.4891 25.0492C22.6195 24.2049 21.2565 23.9469 20.3165 24.4629ZM22.3375 30.2089C22.3375 33.7033 22.2905 34.3131 21.9615 34.5242C21.75 34.6649 21.3975 34.6884 21.186 34.618C20.857 34.4773 20.81 33.9613 20.81 30.3965C20.81 28.145 20.8805 26.2453 20.9745 26.1515C21.0685 26.0577 21.421 26.0108 21.75 26.0577L22.3375 26.1281V30.2089Z" fill="#1B9CB4"/>
<path d="M33.806 20.945C32.3959 21.414 31.1269 22.4929 30.3043 23.947L29.6228 25.19V30.3496C29.6228 36.1659 29.6933 36.4708 31.5499 38.2532C32.7484 39.4258 34.0175 39.9184 35.733 39.9184C37.4251 39.8949 38.5296 39.4728 39.7987 38.3236C41.6082 36.7053 41.8432 35.8845 41.9137 30.889C42.0078 26.0108 41.7962 24.7209 40.5977 23.0557C39.2112 21.1561 36.109 20.1945 33.806 20.945ZM38.2946 23.2668C39.9162 24.5098 40.0807 25.1665 40.0807 30.2558C40.0807 34.3835 40.0337 34.876 39.5872 35.8141C38.0596 38.9333 33.4534 38.9568 31.8554 35.8376C31.4324 35.0402 31.3854 34.4538 31.3854 30.373C31.3854 25.5183 31.4794 24.9085 32.5134 23.8062C33.4769 22.7978 34.37 22.4694 35.9915 22.5632C37.1431 22.6101 37.6131 22.7509 38.2946 23.2668Z" fill="#1B9CB4"/>
<path d="M34.276 24.5802C33.1715 25.2838 32.9834 26.1984 33.0774 30.8655C33.148 34.7353 33.1715 34.8994 33.712 35.4858C34.605 36.4473 35.686 36.6819 36.7436 36.1659C38.2711 35.4154 38.4591 34.7353 38.3886 29.9509L38.3181 25.7763L37.5896 25.0492C36.6496 24.1111 35.3335 23.9235 34.276 24.5802ZM36.4381 30.2089C36.4381 33.7033 36.3911 34.3131 36.0621 34.5242C35.8505 34.6649 35.498 34.6884 35.2865 34.618C34.9575 34.4773 34.9105 33.9613 34.9105 30.3965C34.9105 28.145 34.981 26.2453 35.075 26.1515C35.169 26.0577 35.5215 26.0108 35.8505 26.0577L36.4381 26.1281V30.2089Z" fill="#1B9CB4"/>
<path d="M45.7209 22.8916C44.2873 23.3372 43.6058 24.2049 43.6058 25.6121C43.6058 27.887 46.6844 28.919 48.165 27.16C48.87 26.3392 48.964 25.1665 48.4235 24.1346C47.9535 23.1965 46.6374 22.6102 45.7209 22.8916ZM46.9664 25.1196C47.4834 25.917 46.1204 26.6675 45.5094 25.917C45.2979 25.659 45.2744 25.4479 45.4859 25.0727C45.7914 24.4864 46.5904 24.5098 46.9664 25.1196Z" fill="#1B9CB4"/>
<path d="M48.2355 29.7163C45.8149 32.132 43.8408 34.1724 43.8408 34.2662C43.8408 34.36 44.0758 34.6649 44.3578 34.9229L44.8749 35.4154L53.9227 26.386L53.4292 25.8466C53.1472 25.5417 52.8652 25.3072 52.7947 25.3072C52.7006 25.3072 50.6561 27.2772 48.2355 29.7163Z" fill="#1B9CB4"/>
<path d="M49.8806 33.0701C48.964 33.7737 48.635 35.0636 49.0815 36.1425C50.0451 38.4174 53.4762 38.1125 54.0872 35.7438C54.2987 34.876 54.0167 34.0082 53.2412 33.2578C52.3951 32.39 50.8206 32.3196 49.8806 33.0701ZM52.0191 34.5008C52.4186 34.8995 52.3716 35.5092 51.9251 35.8845C51.1966 36.4942 50.2801 35.2982 50.8911 34.5711C51.2436 34.149 51.6431 34.1255 52.0191 34.5008Z" fill="#1B9CB4"/>
<path d="M49.951 50.05L49.387 50.6598L50.6561 51.9262L51.9251 50.6598L51.3611 50.05C51.0556 49.7216 50.7501 49.4637 50.6561 49.4637C50.5621 49.4637 50.2565 49.7216 49.951 50.05Z" fill="#1B9CB4"/>
</svg>
