<svg width="50" height="50" viewBox="0 0 50 50" fill="none" xmlns="http://www.w3.org/2000/svg">
<path d="M43.2937 5.54657L37.5416 11.2772L36.7638 10.479C35.4947 9.18962 35.3923 9.21009 33.2225 11.3181L31.3393 13.1806L30.4181 12.3415C29.9064 11.8707 29.3742 11.4819 29.2309 11.4819C29.0876 11.4819 24.4 16.0664 18.7913 21.6538L8.61779 31.8257L7.49195 30.7614C6.87786 30.1679 6.28423 29.6971 6.18189 29.6971C5.91578 29.6971 2.25168 33.3402 2.25168 33.6267C2.25168 33.7495 3.33658 34.9571 4.64665 36.2874L7.04162 38.7024L5.79296 39.9714L4.5443 41.2198L3.99161 40.79C3.19329 40.1556 2.23121 40.0328 1.35101 40.4421C0.450336 40.8719 0 41.6496 0 42.8162C0 43.6554 0.0818792 43.7782 2.92718 46.6435C4.52383 48.2603 5.99766 49.6725 6.22283 49.7953C6.42752 49.8977 6.89833 50 7.26679 50C9.39565 50 10.501 47.6463 9.17048 45.9681L8.74061 45.4155L10.0097 44.167L11.2584 42.8981L13.6738 45.3132C14.9839 46.623 16.1916 47.7077 16.3554 47.7077C16.7648 47.7077 20.0604 44.3103 20.0604 43.901C20.0604 43.7168 19.6306 43.0618 19.0983 42.4478L18.1567 41.3222L28.3098 31.1503C33.9185 25.5629 38.4833 20.876 38.4833 20.7328C38.4833 20.5895 38.0943 20.0574 37.6235 19.5457L36.7843 18.6247L38.647 16.7213C39.691 15.6775 40.5302 14.6951 40.5302 14.5723C40.5302 14.4291 40.1208 13.8969 39.6091 13.3648L38.7084 12.4029L44.44 6.65176C49.5574 1.51465 50.1715 0.83925 49.9668 0.470851C49.4346 -0.532012 49.2504 -0.388745 43.2937 5.54657ZM37.0504 13.0169L38.5856 14.5519L37.0913 16.0255L35.6175 17.5195L32.4447 14.3472L33.8776 12.9145C34.6554 12.1368 35.3514 11.4819 35.4128 11.4819C35.4742 11.4819 36.2111 12.1777 37.0504 13.0169ZM32.9564 17.1102L36.5182 20.6918L34.7168 22.5338L33.8571 21.6947C32.8745 20.7123 32.0762 20.6509 31.9739 21.5105C31.9329 21.8789 32.1376 22.2473 32.7312 22.8204C33.5091 23.5776 33.55 23.6595 33.2225 24.0074C33.0383 24.2121 32.7927 24.3758 32.6903 24.3758C32.5675 24.3758 31.8101 23.7209 30.9913 22.9432C29.4765 21.4696 29.0262 21.3058 28.7396 22.1654C28.6373 22.4929 28.9443 22.9022 30.1111 24.0893L31.6054 25.6038L30.7047 26.5044L29.8245 25.6448C28.8624 24.7033 28.3712 24.5805 28.0437 25.1945C27.8594 25.5424 27.9618 25.7471 28.6577 26.5044C29.5789 27.5072 29.6198 27.6505 29.1081 28.1212C28.7601 28.4487 28.6577 28.3668 27.3067 27.016C26.2014 25.9108 25.792 25.6038 25.3826 25.6448C25.0346 25.6857 24.8504 25.8494 24.8094 26.1769C24.748 26.5248 25.1165 27.016 26.1809 28.1417C27.6138 29.6153 27.6343 29.6357 27.2249 30.0041C26.8359 30.3521 26.795 30.3521 25.8943 29.5129C24.8913 28.5715 24.8913 28.5919 24.3386 28.8785C23.745 29.2059 23.8678 29.6971 24.8094 30.6591C25.6487 31.5187 25.6487 31.5391 25.2802 31.9485C24.9118 32.3578 24.8913 32.3578 23.4175 30.9047C22.2916 29.8404 21.8004 29.472 21.4524 29.5334C21.1453 29.5743 20.9611 29.7585 20.9202 30.086C20.8587 30.4544 21.1658 30.9047 22.2916 32.0303L23.7655 33.5039L23.2742 33.9542L22.8034 34.4045L21.9846 33.5653C21.4114 32.9718 21.043 32.7671 20.6745 32.8081C19.8353 32.9104 19.9171 33.5244 20.8997 34.5273L21.7799 35.4278L21.3296 35.8781L20.8997 36.3283L19.3644 34.8547C18.5457 34.0361 17.7473 33.3811 17.645 33.3811C17.3584 33.3811 16.7853 33.9542 16.7853 34.2407C16.7853 34.3431 17.4403 35.1413 18.2591 35.9599L19.7329 37.4949L16.99 40.2374L13.3668 36.5944L9.72316 32.9718L19.4463 23.2502C24.789 17.9084 29.2104 13.5285 29.2718 13.5285C29.3333 13.5285 30.9913 15.1454 32.9564 17.1102ZM12.2819 37.7814L18.3205 43.8191L17.3379 44.781L16.3759 45.7634L4.19631 33.5858L5.11746 32.6648C5.60873 32.1531 6.07954 31.7438 6.14095 31.7438C6.20235 31.7438 8.96578 34.4659 12.2819 37.7814ZM9.21142 40.8514L10.1121 41.7724L8.84296 43.0618L7.57383 44.3308L6.61175 43.3484L5.6292 42.3864L6.85739 41.1584C7.53289 40.483 8.12652 39.9304 8.18793 39.9304C8.24934 39.9304 8.72014 40.3398 9.21142 40.8514ZM5.46544 44.474C8.2084 47.2165 8.55639 47.7691 7.88088 48.3217C7.30773 48.7925 6.65269 48.3422 4.03255 45.702C1.4943 43.1232 1.12584 42.5706 1.67853 42.018C2.25168 41.445 2.80437 41.8134 5.46544 44.474Z" fill="#1B9CB4"/>
</svg>
