<svg width="50" height="60" viewBox="0 0 50 60" fill="none" xmlns="http://www.w3.org/2000/svg">
<path d="M22.0843 0.134908C18.7822 0.65261 15.6206 2.22925 13.4895 4.39418C10.9602 6.91209 10.1639 9.43 10.1639 14.7717C10.1639 16.7484 10.1639 18.9133 10.1405 19.5722C10.0937 21.2195 10.9368 22.9138 12.1311 23.5491C12.74 23.8786 13.0679 24.2786 13.2553 24.8434C13.8173 26.5847 15.2225 28.9144 16.6979 30.5146L18.1967 32.1618L17.7986 33.2207C17.1429 34.9386 16.4403 35.5974 14.918 35.9034C12.3888 36.4446 8.19672 37.8094 6.20609 38.7742C3.60656 40.045 1.38173 42.1864 0.562061 44.2572C0.0936768 45.4808 0.0234192 46.0691 0 48.6106C0 51.0344 0.0702576 51.7168 0.444965 52.4463C1.85012 55.2701 6.29976 57.6468 12.6464 58.9646C16.815 59.8117 19.1569 60 24.9415 60C28.4075 60 31.5457 59.8823 32.904 59.6941C40.6792 58.6116 45.6909 56.7526 48.1967 54.0464C49.6487 52.4463 50 51.4815 50 49.0106C50 44.163 48.1733 40.9627 44.3794 39.1508C41.8267 37.9271 38.5012 36.7505 35.9485 36.1387C34.7307 35.8328 33.5363 35.4327 33.2787 35.2209C32.8103 34.7974 31.733 32.7972 31.733 32.303C31.733 32.1383 32.178 31.5735 32.6932 31.0793C33.9813 29.8321 35.7377 27.126 36.3934 25.4081C36.7916 24.3021 37.0726 23.9256 37.7518 23.5491C38.8759 22.9373 39.6955 21.3607 39.6955 19.784C39.7424 12.6303 39.6721 10.7478 39.3443 9.45353C38.2436 5.26486 34.7307 1.97039 29.8595 0.629078C27.8454 0.0643127 24.0749 -0.171006 22.0843 0.134908ZM28.8056 2.13512C33.2553 3.07639 36.6511 6.22966 37.5644 10.2771C37.7049 10.8419 37.822 12.2068 37.822 13.2892C37.822 14.9835 37.7752 15.2188 37.4473 15.1012C37.2365 15.0306 36.8384 14.96 36.534 14.96C36.0656 14.96 35.9016 14.7247 35.4801 13.3598C35.1756 12.4891 34.7541 11.5479 34.4965 11.2655C33.6534 10.3242 31.7799 9.68885 29.8595 9.68885C28.2436 9.66532 27.8454 9.78298 25.0585 10.9596C22.2482 12.1362 21.8735 12.2303 20.1405 12.2303C18.5246 12.2538 18.0796 12.1597 17.0258 11.5949C15.8548 10.9831 15.7377 10.9596 15.363 11.3125C15.1288 11.5008 14.6838 12.4185 14.3794 13.3128C13.9344 14.6776 13.7471 14.96 13.3255 14.96C13.0211 14.96 12.6464 15.0306 12.4356 15.1012C12.1077 15.2188 12.0609 14.9835 12.0609 13.2892C12.0609 12.2068 12.2014 10.7713 12.3888 10.136C13.466 6.06494 16.6745 3.07639 21.0304 2.13512C22.9742 1.71154 26.7916 1.71154 28.8056 2.13512ZM32.2717 12.0891C33.3255 12.5597 33.3489 12.6068 33.9813 14.607C34.7541 17.1249 34.9649 17.3602 36.0656 17.0073C36.815 16.7955 36.9555 16.819 37.4239 17.2661C37.8454 17.6897 37.9391 18.0662 37.9157 19.1487C37.9157 20.9606 37.377 21.9725 36.37 22.0666C35.644 22.1372 35.5738 22.2313 34.9649 23.9727C34.6136 24.9846 34.0515 26.3024 33.7002 26.9142C32.6464 28.7261 30.6557 30.6558 28.9461 31.5029C27.5176 32.2089 27.26 32.2559 24.9415 32.2559C22.6229 32.2559 22.3653 32.2089 20.9133 31.4794C19.8595 30.9617 18.9227 30.2557 17.9391 29.1968C16.3466 27.4789 15.7845 26.5141 14.8712 23.9021C14.2857 22.2313 14.2155 22.1372 13.5129 22.0666C12.5761 21.9725 12.1077 21.3136 11.9204 19.8546C11.6159 17.7368 12.5059 16.4896 13.9344 17.0308C14.2623 17.1485 14.637 17.1955 14.8009 17.1485C14.9415 17.1014 15.3396 16.2307 15.6909 15.2188L16.2998 13.3598L17.7049 13.8069C20.2576 14.607 22.2951 14.3011 25.4098 12.7245C28.1499 11.3125 30.1171 11.1478 32.2717 12.0891ZM24.0047 34.3738C25.6206 34.5385 28.0796 34.1149 29.3911 33.4325C30.0468 33.0795 30.0703 33.1031 30.3279 33.8796C30.4684 34.3267 30.8899 35.1268 31.2881 35.6445C32.1077 36.8211 32.1311 36.9388 31.3817 37.9271C30.4215 39.1978 25.5972 42.9629 24.9415 42.9629C23.9813 42.9629 17.9157 37.8094 17.9157 36.9858C17.9157 36.774 18.2201 36.1857 18.5948 35.6445C18.993 35.1268 19.4145 34.3503 19.555 33.9267L19.8126 33.1501L21.1475 33.6914C21.897 33.9973 23.185 34.3032 24.0047 34.3738ZM16.3934 38.0448C16.6511 38.8684 19.4848 41.5275 21.8501 43.1982L24.0047 44.7278V58.2586H23.2553C21.9204 58.2586 17.4239 57.8115 14.8712 57.4115C9.90632 56.6585 5.71429 55.223 3.62998 53.5523C3.13817 53.1522 2.50585 52.3521 2.22482 51.7638C1.75644 50.8226 1.7096 50.4225 1.80328 48.187C1.87354 46.0456 1.99063 45.4808 2.50585 44.4925C3.62998 42.2805 5.78454 40.7509 9.67213 39.339C11.1944 38.7978 11.3817 38.7742 11.2646 39.1272C11.1944 39.3625 11.0304 40.1862 10.9133 40.9392C10.7728 41.7157 10.6323 42.3511 10.6089 42.3511C9.71897 42.657 8.57143 43.5042 8.10304 44.2336C7.51756 45.1279 7.49414 45.3161 7.47073 48.4458C7.47073 51.4344 7.49414 51.7638 7.93911 52.1639C8.54801 52.7286 9.13349 52.7287 9.71897 52.1404C10.3044 51.5521 10.3044 51.0344 9.71897 50.1401C9.34426 49.5989 9.25058 49.0341 9.25058 47.6222C9.25058 45.9515 9.29742 45.7397 9.90632 45.0573C10.3981 44.4925 10.7963 44.3042 11.5925 44.2336C12.8571 44.0924 13.63 44.469 14.2155 45.4808C14.8244 46.4927 15.1991 48.94 14.8478 49.5754C14.2857 50.6578 15.2459 51.858 16.4169 51.5756C17.2365 51.3638 17.5176 50.4696 17.096 49.4577C16.9087 48.9871 16.7447 48.2811 16.7447 47.834C16.7447 45.4808 15.1756 42.9629 13.4426 42.4923C12.4122 42.2099 12.4356 42.3746 13.0913 39.339C13.3489 38.1389 13.3724 38.1389 14.5199 37.8565C16.1593 37.48 16.2295 37.48 16.3934 38.0448ZM35.1991 37.8094L36.3466 38.0448L36.7447 39.8567C36.9555 40.8451 37.1897 42.1628 37.26 42.7511C37.4005 43.7395 37.3536 43.8571 36.7447 44.2572C35.8548 44.8219 35.5504 45.269 35.2459 46.2574C34.918 47.3869 35.3396 48.7518 36.2998 49.7166C36.9789 50.399 37.2131 50.4931 38.3372 50.4931C40.5152 50.4931 41.8033 49.2459 41.8033 47.1281C41.8033 45.9044 41.0773 44.6807 40.0468 44.1395C39.6487 43.9513 39.3208 43.7865 39.2974 43.7865C39.2506 43.7865 38.5246 39.292 38.5246 38.9625C38.5246 38.8448 39.2974 39.0096 40.2342 39.339C46.0422 41.4333 48.1265 43.9042 48.1265 48.6576C48.1265 51.2226 47.6581 52.4227 46.2529 53.5523C44.1686 55.223 39.9766 56.6585 35.0117 57.4115C32.459 57.8115 27.9625 58.2586 26.6511 58.2586H25.8782V44.6807L27.1194 43.8571C29.4848 42.2805 31.9906 40.0685 32.8571 38.8213C33.3255 38.1389 33.7939 37.5741 33.8876 37.5506C33.9813 37.5506 34.5667 37.6683 35.1991 37.8094ZM39.5082 45.9515C40 46.3986 40.0703 47.6222 39.6253 48.2341C39.1803 48.8459 37.8454 48.7988 37.3068 48.1399C36.7681 47.4575 36.7682 46.9398 37.377 46.1633C37.9391 45.4573 38.8525 45.3632 39.5082 45.9515Z" fill="#1B9CB4"/>
</svg>
