<svg width="50" height="50" viewBox="0 0 50 50" fill="none" xmlns="http://www.w3.org/2000/svg">
<path d="M1.42665 0.292969C1.07509 0.449219 0.606347 0.859375 0.391507 1.21094C0.000888885 1.85547 0.000888875 2.14844 0.000888875 24.9609C0.000888875 50.4688 -0.0772347 48.8086 1.23134 49.6094C1.83679 49.9805 2.3446 50 19.1607 50H36.4651L37.1292 49.5508C38.2424 48.8086 38.2815 48.6133 38.2815 43.418C38.2815 38.8867 38.2619 38.6719 37.8909 38.4766C37.6174 38.3203 37.3831 38.3203 37.1096 38.4766C36.7385 38.6719 36.719 38.8867 36.719 43.125C36.719 46.3867 36.6604 47.6758 36.4846 47.9102C36.2503 48.2227 35.0198 48.2422 19.0435 48.2031L1.85633 48.1445V1.85547L19.024 1.79688C30.8793 1.77734 36.2698 1.81641 36.4065 1.95313C36.5432 2.08984 36.6604 5 36.719 10.3906C36.8167 17.9492 36.8362 18.6328 37.1682 18.8281C37.4026 18.9844 37.5979 18.9844 37.8518 18.8281C38.1643 18.6328 38.1838 17.9688 38.2229 10.2344C38.2815 1.07422 38.301 1.23047 37.1292 0.449219L36.4651 0H19.2584C4.92268 0.0195313 1.95398 0.0585937 1.42665 0.292969Z" fill="#1B9CB4"/>
<path d="M7.61793 5.44921C7.52027 5.66405 7.42262 6.60155 7.42262 7.51952C7.42262 10.2539 6.03592 9.96093 19.1607 9.96093H30.4691L30.7035 9.47265C30.8597 9.10156 30.8597 8.92577 30.6644 8.6914C30.4496 8.43749 29.1019 8.39843 19.8052 8.39843H9.1804V6.64062H30.4691L30.7035 6.15234C30.8597 5.78124 30.8597 5.60546 30.6644 5.37109C30.4496 5.11718 29.0238 5.07812 19.1216 5.07812C8.14526 5.07812 7.81323 5.09765 7.61793 5.44921Z" fill="#1B9CB4"/>
<path d="M46.5626 10.2344C46.2305 10.3906 45.7227 10.8203 45.4298 11.1914C45.1368 11.5625 44.6681 11.9141 44.3751 11.9727C43.9454 12.0703 43.6329 12.461 42.7736 13.9649C41.9728 15.3516 41.6408 15.8008 41.4064 15.7031C40.4494 15.293 39.6486 15.4883 39.6486 16.1328C39.6486 16.4258 40.2345 17.0899 40.6056 17.2071C40.7619 17.2656 39.4338 19.7266 37.3049 23.4375C34.6096 28.086 33.5354 30.1563 32.8909 31.875C32.4222 33.1446 31.7581 34.7071 31.4261 35.3711C30.8402 36.5625 30.7425 37.4219 31.1136 38.2813C31.2113 38.4766 30.9183 38.9844 30.3519 39.7071L29.4535 40.8399L29.0043 39.8633C28.3012 38.3594 27.1879 38.0274 26.1723 39.043L25.6059 39.5899L25.4692 37.8125C25.352 36.2305 25.2739 35.9961 24.7856 35.5078C24.1606 34.8633 23.3012 34.7852 22.6763 35.293C22.3833 35.5274 21.8755 36.7774 21.1138 39.0625C20.1372 41.9922 20.0005 42.5391 20.2154 42.8711C20.5279 43.3789 20.9771 43.4571 21.3677 43.0664C21.5435 42.8906 22.1099 41.4063 22.6372 39.7852C23.6723 36.543 23.6528 36.5625 23.9262 39.3555C24.0434 40.5664 24.3754 41.1328 25.1371 41.4258C25.684 41.6406 26.6996 41.2891 26.9731 40.8008C27.2465 40.2735 27.4223 40.3321 27.7152 41.1133C27.8324 41.4844 28.184 41.9727 28.4574 42.1875C29.434 42.9492 30.1957 42.6367 31.6019 40.8203C32.5784 39.5899 32.6956 39.4922 33.4183 39.4922C34.4534 39.4727 35.0003 39.1016 35.8401 37.7735C36.2112 37.1875 37.2073 35.8789 38.0471 34.8633C39.1408 33.5156 40.4884 31.4063 43.047 26.9141C44.9806 23.5547 46.5821 20.7617 46.6016 20.7227C46.7188 20.586 47.6758 21.3086 47.793 21.5821C47.8516 21.7383 47.1485 23.1641 46.2305 24.7461C43.9454 28.75 44.0821 28.3985 44.4923 28.9063C44.7462 29.2188 44.961 29.3164 45.254 29.2188C45.8399 29.043 49.4141 22.7149 49.4141 21.8946C49.4141 21.0352 48.9453 20.2149 48.1641 19.668L47.5 19.2188L48.5547 17.3828C49.5899 15.5469 49.7852 14.9805 49.4336 14.7461C49.3164 14.6875 49.3945 14.2969 49.6094 13.8086C49.8242 13.3594 50 12.7735 50 12.5C50 11.7383 49.3555 10.7031 48.6133 10.3125C47.8321 9.90236 47.3829 9.88283 46.5626 10.2344ZM47.9297 11.836C48.2813 11.9727 48.3399 12.7344 48.0469 13.3008C47.8321 13.6914 47.6172 13.6524 46.7969 13.0274C46.4258 12.7539 46.4258 12.7149 46.7383 12.2266C47.0899 11.7188 47.3633 11.6211 47.9297 11.836ZM46.3477 14.7461L47.6758 15.4688L46.9532 16.7774C46.5626 17.4805 46.1719 18.1446 46.0938 18.2227C45.918 18.4375 43.2423 16.836 43.3204 16.543C43.4571 16.0547 44.7657 13.8672 44.8829 13.9453C44.961 13.9844 45.6251 14.336 46.3477 14.7461ZM44.9806 19.7266C45.1563 19.8828 38.7111 31.25 38.4572 31.25C38.1057 31.25 35.7424 29.7656 35.7815 29.5703C35.8206 29.4531 37.2854 26.8555 39.0627 23.7696L42.2853 18.1836L43.5548 18.8867C44.2579 19.2774 44.9024 19.6485 44.9806 19.7266ZM37.2854 32.5977C37.5197 32.7344 37.3635 33.0078 36.6213 33.9063C36.094 34.5508 35.6057 35.1367 35.5276 35.2149C35.4299 35.3516 33.7893 34.5117 33.7893 34.3164C33.7893 34.2774 34.0823 33.5156 34.7464 31.7774L34.9612 31.2305L35.9768 31.836C36.5432 32.168 37.1291 32.5196 37.2854 32.5977ZM34.1604 37.3438C33.3401 38.4961 32.0902 37.5391 32.8519 36.3281C33.0862 35.9571 33.1058 35.9571 33.8284 36.3672L34.551 36.7774L34.1604 37.3438Z" fill="#1B9CB4"/>
<path d="M10.1569 12.1094C10.0007 12.3828 10.0007 12.6172 10.1569 12.8906C10.3718 13.2813 10.528 13.2813 19.1802 13.2422C27.3246 13.1836 28.0082 13.1641 28.2035 12.832C28.3598 12.5977 28.3598 12.4024 28.2035 12.1484C28.0082 11.8359 27.3246 11.8164 19.1802 11.7578C10.528 11.7188 10.3718 11.7188 10.1569 12.1094Z" fill="#1B9CB4"/>
<path d="M13.4772 17.9688C13.321 18.2422 13.321 18.4766 13.4772 18.75C13.6725 19.1406 13.8874 19.1406 23.3403 19.1406C32.7933 19.1406 33.0081 19.1406 33.2034 18.75C33.3597 18.4766 33.3597 18.2422 33.2034 17.9688C33.0081 17.5781 32.7933 17.5781 23.3403 17.5781C13.8874 17.5781 13.6725 17.5781 13.4772 17.9688Z" fill="#1B9CB4"/>
<path d="M6.21169 22.6758C5.74295 22.9297 5.76248 23.7695 6.23123 24.0234C6.48513 24.1406 9.6296 24.2188 15.0983 24.2188C23.0669 24.2188 23.5942 24.1992 23.8872 23.8672C24.3169 23.3984 24.2973 23.1836 23.8676 22.793C23.5356 22.5 22.6372 22.4609 15.0201 22.4609C9.6296 22.4609 6.42653 22.5391 6.21169 22.6758Z" fill="#1B9CB4"/>
<path d="M26.1137 22.8125C25.684 23.2813 25.7035 23.4961 26.1527 23.9063C26.4652 24.1797 26.934 24.2188 29.6878 24.1797C32.637 24.1211 32.8909 24.1016 33.1253 23.7305C33.3596 23.3789 33.3401 23.2617 33.0862 22.8906C32.7933 22.4805 32.6761 22.461 29.6097 22.461C26.7777 22.461 26.3871 22.5 26.1137 22.8125Z" fill="#1B9CB4"/>
<path d="M6.09452 26.9922C5.78203 27.3047 5.80156 27.832 6.13359 28.1055C6.30936 28.2617 7.75465 28.3203 10.9382 28.2813C15.0202 28.2227 15.5084 28.1836 15.7037 27.8711C15.86 27.6367 15.86 27.4414 15.7037 27.1875C15.5084 26.8945 15.0202 26.8555 10.9187 26.7969C7.52028 26.7578 6.2703 26.8164 6.09452 26.9922Z" fill="#1B9CB4"/>
<path d="M17.7154 26.875C17.481 27.1094 17.5591 27.8711 17.8521 28.1055C18.0279 28.2617 19.1411 28.3203 21.3872 28.2813C24.2582 28.2227 24.6879 28.1836 24.8832 27.8711C25.0395 27.6367 25.0395 27.4414 24.8832 27.1875C24.6879 26.8945 24.2582 26.8555 21.2505 26.7969C19.3755 26.7773 17.7935 26.8164 17.7154 26.875Z" fill="#1B9CB4"/>
<path d="M8.98507 32.6953C7.07104 33.1055 5.48904 34.1797 4.53202 35.7031C0.977395 41.2695 6.17262 48.2422 12.4225 46.3281C15.274 45.4492 16.9927 43.3399 17.442 40.1758C17.5396 39.5899 17.4615 39.3359 17.1685 39.043C16.817 38.6914 16.7193 38.6719 16.3482 38.9258C16.0357 39.1211 15.8795 39.5117 15.7623 40.2344C15.567 41.6602 14.7272 43.1055 13.7115 43.8281C12.5397 44.668 11.8366 44.8828 10.3327 44.9024C8.20383 44.9414 6.36793 43.7305 5.44997 41.7188C5.03982 40.8008 4.98123 38.7305 5.33279 37.7539C5.76247 36.582 6.73901 35.4688 7.83275 34.8633C8.73117 34.3555 9.10225 34.2774 10.3522 34.2774C11.5827 34.2774 12.0124 34.375 12.8717 34.8047C14.0826 35.4492 14.5709 35.4883 14.8443 34.9805C15.1373 34.4336 14.9029 34.043 13.985 33.5156C12.442 32.6172 10.6647 32.3438 8.98507 32.6953Z" fill="#1B9CB4"/>
<path d="M11.7975 38.7109L10.157 40.3125L9.12181 39.2969C8.06714 38.2617 7.67653 38.1055 7.26638 38.5156C6.8367 38.9453 7.01247 39.4531 7.94996 40.4492C9.06322 41.6406 9.82493 42.0703 10.528 41.8945C11.2116 41.7383 14.4538 38.5156 14.4538 37.9883C14.4538 37.5195 14.1022 37.1094 13.7116 37.1094C13.5553 37.1094 12.696 37.832 11.7975 38.7109Z" fill="#1B9CB4"/>
</svg>
