<svg width="80" height="60" viewBox="0 0 80 60" fill="none" xmlns="http://www.w3.org/2000/svg">
<path d="M43.7732 0.521462C42.3031 0.834417 40.3637 1.39774 39.4566 1.77328C37.8926 2.39919 37.267 2.43049 27.1637 2.43049C17.6234 2.43049 16.5286 2.49308 16.3409 2.93122C16.2471 3.21288 16.2783 3.68231 16.466 3.96397C16.7475 4.40211 17.9049 4.496 25.1618 4.62118L33.576 4.77766L32.3248 5.59134C31.6367 6.06077 30.1978 7.2813 29.103 8.28276C27.5703 9.75365 27.2262 10.2544 27.3826 10.7551C27.6329 11.3497 28.1021 11.8192 28.5087 11.8192C28.6338 11.8192 29.7912 10.8803 31.0736 9.69106C34.7646 6.34243 39.0813 4.02656 43.9609 2.86863C47.214 2.08624 52.9069 2.14883 56.3789 2.99381C66.8576 5.59134 74.8965 13.8534 77.1174 24.3374C77.6804 26.9662 77.6804 32.9749 77.1174 35.6038C74.1458 49.5616 60.8207 59.2319 46.8699 57.5107C35.359 56.1337 26.1002 48.0907 23.066 36.793C22.503 34.6962 22.3779 33.3818 22.3779 29.9706C22.3779 24.7755 23.0348 21.865 25.3182 17.3272C26.5381 14.8861 26.7883 14.135 26.5381 13.6656C25.6935 12.0695 24.2234 13.603 22.4092 17.9218C20.6888 21.9902 20.2509 23.8992 20.0945 28.531C19.8442 34.7901 20.5949 38.3891 23.1912 43.6467C25.2243 47.7464 29.1969 52.3469 32.6689 54.5689L33.576 55.1635L25.1931 55.32C17.9049 55.4452 16.7475 55.539 16.466 55.9772C16.2783 56.2588 16.2471 56.7283 16.3409 57.0099C16.5286 57.4481 17.6234 57.5107 27.0698 57.5107C37.4547 57.5107 37.6424 57.5107 39.7068 58.2618C45.9628 60.515 53.4386 60.5776 59.7259 58.4495C72.269 54.1307 80.6207 41.8003 79.9638 28.5623C79.307 15.4494 70.361 4.30822 57.6927 0.865713C54.0955 -0.135745 47.4329 -0.292223 43.7732 0.521462Z" fill="#1B9CB4"/>
<path d="M45.8064 6.937C41.2083 7.84458 37.486 9.7849 34.0453 13.0083C27.977 18.7041 25.4121 26.6219 27.0699 34.6023C28.0708 39.5157 30.2917 43.4276 34.1078 46.9953C36.8917 49.6241 40.7704 51.7835 44.3988 52.7224C47.1827 53.4422 52.9382 53.4109 55.6283 52.6911C63.4795 50.563 69.579 44.8985 72.0501 37.4815C73.0511 34.4145 73.2075 32.8184 72.488 32.349C71.5496 31.7544 70.9553 32.5055 70.3297 34.9778C69.3601 38.8898 67.7648 41.6751 64.7307 44.7107C60.1638 49.2799 55.2842 51.1889 48.8093 50.8447C43.2728 50.5943 38.6747 48.4975 34.8585 44.523C32.6064 42.1758 31.1988 39.8912 30.0727 36.793C29.322 34.7275 29.2282 34.1015 29.2282 29.9705C29.2282 25.8082 29.2907 25.2449 30.0727 23.1481C31.1988 20.0185 32.6064 17.7653 34.8585 15.4181C38.6747 11.4436 43.2728 9.34676 48.8093 9.0964C55.1903 8.75215 60.1325 10.6299 64.6055 15.0738C68.234 18.7041 69.8918 21.9589 70.7676 27.2165C71.143 29.4698 71.1743 29.5011 72.0814 29.5011C72.9572 29.5011 73.0198 29.4072 73.1136 28.1554C73.2387 26.309 72.144 22.2092 70.8302 19.4865C69.4539 16.7325 66.889 13.5717 64.4804 11.6313C62.3221 9.91008 58.3809 7.96976 55.7534 7.28126C52.9382 6.59275 48.4339 6.43628 45.8064 6.937Z" fill="#1B9CB4"/>
<path d="M5.36177 11.2558C4.79873 11.8191 4.92385 12.6954 5.58072 13.071C5.95608 13.2587 8.73998 13.3839 12.4623 13.3839C17.7173 13.3839 18.7808 13.3213 19.1874 12.8832C19.7817 12.3199 19.7817 12.2573 19.3751 11.4749C19.0623 10.9116 18.6556 10.8803 12.3997 10.8803C7.64519 10.8803 5.64328 10.9742 5.36177 11.2558Z" fill="#1B9CB4"/>
<path d="M48.9657 12.3199C48.6216 13.2274 48.778 15.1677 49.2472 15.5746C49.9979 16.2005 50.9363 15.6685 51.1553 14.4479C51.4368 12.9771 50.8737 11.8191 49.9041 11.8191C49.4974 11.8191 49.0595 12.0382 48.9657 12.3199Z" fill="#1B9CB4"/>
<path d="M36.8917 17.4523C36.6415 17.9531 36.7353 18.266 37.5486 19.1736C38.5495 20.3002 39.3003 20.5506 39.9571 19.8934C40.5202 19.3301 40.4263 18.8606 39.5192 17.7966C38.5808 16.67 37.3922 16.5135 36.8917 17.4523Z" fill="#1B9CB4"/>
<path d="M60.5392 17.7027C59.4757 18.8293 59.5069 20.0499 60.6017 20.2064C61.5401 20.3628 63.2605 18.6416 63.1041 17.7027C62.9477 16.5761 61.634 16.6074 60.5392 17.7027Z" fill="#1B9CB4"/>
<path d="M12.1807 19.5179C11.8679 19.8621 11.8366 20.1438 12.0869 20.5193C12.3371 20.9574 12.9627 21.0513 15.6528 21.0513H18.9058V19.1736L15.7466 19.0797C13.1504 19.0171 12.5248 19.0797 12.1807 19.5179Z" fill="#1B9CB4"/>
<path d="M48.9657 19.5178C48.5903 20.488 48.7467 30.44 49.1533 30.8468C49.4036 31.0972 50.6235 31.2224 52.5316 31.2224C55.6283 31.2224 56.2851 31.0033 56.2851 29.908C56.2851 29.0943 55.3155 28.7187 53.1884 28.7187H51.2804V24.4625C51.2804 22.1467 51.124 19.956 50.9676 19.6117C50.5609 18.8919 49.2472 18.8293 48.9657 19.5178Z" fill="#1B9CB4"/>
<path d="M0.357031 25.0259C-0.206004 25.5892 -0.0808851 26.4655 0.575989 26.841C0.951345 27.0288 3.67268 27.154 7.30113 27.154C12.431 27.154 13.4632 27.0601 13.8699 26.6532C14.4642 26.0899 14.4642 26.0273 14.0575 25.2449C13.7447 24.6816 13.3381 24.6503 7.23857 24.6503C2.57789 24.6503 0.638548 24.7442 0.357031 25.0259Z" fill="#1B9CB4"/>
<path d="M32.0746 29.2195C31.7931 29.4698 31.5741 29.8141 31.5741 29.9705C31.5741 30.5965 32.6377 31.2224 33.7637 31.2224C34.8898 31.2224 35.9533 30.5965 35.9533 29.9705C35.9533 29.3446 34.8898 28.7187 33.7637 28.7187C33.0756 28.7187 32.3561 28.9378 32.0746 29.2195Z" fill="#1B9CB4"/>
<path d="M64.4804 29.0943C63.4169 30.1583 64.4178 31.3163 66.3259 31.1598C67.8586 31.0659 68.5468 30.3148 67.9837 29.4072C67.5458 28.75 65.0747 28.4997 64.4804 29.0943Z" fill="#1B9CB4"/>
<path d="M0.544686 33.1314C-0.112188 33.507 -0.174748 34.3832 0.357008 34.9153C0.638525 35.1969 2.57787 35.2908 7.23854 35.2908C13.3381 35.2908 13.7447 35.2595 14.0575 34.6962C14.4642 33.9138 14.4642 33.8512 13.8698 33.2879C13.4632 32.8497 12.431 32.7872 7.23854 32.7872C3.64138 32.7872 0.857483 32.9436 0.544686 33.1314Z" fill="#1B9CB4"/>
<path d="M12.1807 39.2341C11.8679 39.5783 11.8366 39.86 12.0869 40.2355C12.3371 40.6736 12.9627 40.7675 15.6528 40.7675H18.9058V38.8898L15.7466 38.7959C13.1504 38.7333 12.5248 38.7959 12.1807 39.2341Z" fill="#1B9CB4"/>
<path d="M37.5486 40.7675C36.7353 41.6751 36.6415 41.988 36.8917 42.4888C37.3922 43.4276 38.5808 43.2711 39.5192 42.1445C40.4263 41.0805 40.5202 40.611 39.9571 40.0477C39.3003 39.3905 38.5495 39.6409 37.5486 40.7675Z" fill="#1B9CB4"/>
<path d="M59.9449 39.8913C59.069 40.7675 60.9145 43.2712 62.2596 43.0521C63.3856 42.8956 63.3856 41.7377 62.2596 40.611C61.3837 39.7348 60.4141 39.4218 59.9449 39.8913Z" fill="#1B9CB4"/>
<path d="M49.1534 44.4291C48.7467 44.836 48.6529 46.7763 48.9657 47.6213C49.2472 48.3411 50.561 48.2472 50.9989 47.4648C51.1866 47.0892 51.2804 46.2756 51.1553 45.6809C50.9363 44.1788 49.9667 43.6154 49.1534 44.4291Z" fill="#1B9CB4"/>
<path d="M5.54942 46.9015C4.89255 47.277 4.82999 48.1533 5.36174 48.6853C5.64326 48.967 7.64516 49.0609 12.3997 49.0609C18.6556 49.0609 19.0623 49.0296 19.3751 48.4662C19.7817 47.6839 19.7817 47.6213 19.1874 47.0579C18.7807 46.6198 17.7172 46.5572 12.3997 46.5572C8.67739 46.5572 5.86222 46.7137 5.54942 46.9015Z" fill="#1B9CB4"/>
</svg>
